<svg xmlns:xlink="http://www.w3.org/1999/xlink" xmlns="http://www.w3.org/2000/svg" viewBox="24.329674545454544 68.69997 169.47190082644627 149.4" data-name="Layer 2" id="Layer_2" style="max-height: 500px" width="169.47190082644627" height="149.4"><defs><style>      .cls-1 {        fill: #bfb4fe;      }      .cls-2, .cls-3, .cls-4 {        fill-rule: evenodd;      }      .cls-2, .cls-5 {        fill: #4c2984;      }      .cls-6 {        fill: #6d55fe;      }      .cls-3, .cls-7 {        fill: #fff;      }      .cls-8 {        fill: #5033fe;      }      .cls-9 {        fill: #e71f3d;      }      .cls-10 {        fill: #b7abfe;      }      .cls-11 {        fill: #0081c6;      }      .cls-12 {        fill: #d2cbfe;      }      .cls-13 {        fill: #231f20;      }      .cls-14 {        fill: #bc00ff;      }      .cls-4 {        fill: #f37b33;      }      .cls-15 {        fill: url(#linear-gradient);      }      .cls-16 {        fill: #664cfe;      }      .cls-17 {        fill: #666c71;      }      .cls-18 {        fill: #1d1d1b;      }      .cls-19 {        fill: #836efe;      }      .cls-20 {        isolation: isolate;      }      .cls-21 {        fill: #907efe;      }      .cls-22 {        fill: #bcb1fe;      }      .cls-23 {        fill: #fbab18;      }      .cls-24 {        fill: #7e68fe;      }      .cls-25 {        fill: #00ae57;      }      .cls-26 {        fill: #f04931;      }      .cls-27 {        fill: #a698fe;      }      .cls-28 {        fill: #cbc2fe;      }      .cls-29 {        fill: #fefefe;      }      .cls-30 {        fill: #9b8bfe;      }      .cls-31 {        fill: #aea1fe;      }      .cls-32 {        fill: #fcfcfc;      }      .cls-33 {        fill: #93c01f;      }      .cls-34 {        fill: #0062ff;      }      .cls-35 {        fill: #7b66fe;      }      .cls-36 {        fill: #df5957;      }    </style><linearGradient gradientUnits="userSpaceOnUse" gradientTransform="translate(0 506.98) scale(1 -1)" y2="310.08" x2="160.95" y1="457.34" x1="-25.42" id="linear-gradient"><stop stop-color="#95c11f" offset="0"></stop><stop stop-color="#1d71b8" offset="1"></stop></linearGradient></defs><g data-name="Layer 1" id="Layer_1-2"><g><g><path d="M76.44,239.27c-.53,0-1.03-.09-1.48-.26s-.85-.42-1.19-.74c-.33-.32-.6-.7-.78-1.13-.19-.43-.28-.91-.28-1.43s.09-1,.28-1.43c.19-.43.45-.81.79-1.13.34-.32.73-.57,1.19-.74s.95-.26,1.49-.26c.6,0,1.14.1,1.62.31.48.21.89.51,1.22.91l-1.02.95c-.24-.27-.5-.47-.79-.61-.29-.13-.6-.2-.95-.2-.32,0-.62.05-.89.16-.27.11-.5.26-.7.45-.2.2-.35.43-.46.7-.11.27-.16.57-.16.9s.05.63.16.9c.11.27.26.5.46.7.2.2.43.35.7.45.27.1.57.16.89.16.34,0,.66-.07.95-.2.29-.14.55-.34.79-.62l1.02.95c-.33.4-.73.71-1.22.92-.48.21-1.03.31-1.63.31Z"></path><path d="M82.59,239.23c-.56,0-1.07-.12-1.5-.35-.44-.24-.78-.56-1.03-.97-.25-.41-.38-.88-.38-1.4s.13-1,.38-1.41c.25-.41.6-.73,1.03-.97.44-.23.94-.35,1.5-.35s1.06.12,1.5.35c.44.23.79.55,1.03.96.25.41.37.88.37,1.42s-.12.99-.37,1.4c-.25.41-.59.73-1.03.97-.44.24-.94.35-1.5.35ZM82.59,237.97c.26,0,.49-.06.69-.18.2-.12.36-.29.48-.51s.18-.48.18-.78-.06-.57-.18-.79c-.12-.22-.28-.38-.48-.5-.2-.12-.43-.18-.69-.18s-.49.06-.69.18c-.2.12-.37.29-.49.5-.12.22-.18.48-.18.79s.06.56.18.78.28.39.49.51c.2.12.43.18.69.18Z"></path><path d="M86.43,237v-1.23h2.79v1.23h-2.79Z"></path><path d="M90.43,241.07v-7.21h1.47v1.08l-.03,1.58.1,1.57v2.99h-1.54ZM93.56,239.23c-.45,0-.84-.1-1.17-.3-.34-.2-.6-.5-.78-.9-.19-.4-.28-.92-.28-1.53s.09-1.14.27-1.54c.18-.4.43-.7.77-.9.33-.2.74-.3,1.2-.3.5,0,.95.11,1.35.34.4.23.71.54.95.95.23.41.35.89.35,1.44s-.12,1.04-.35,1.45c-.23.41-.55.72-.95.95-.4.22-.85.33-1.35.33ZM93.3,237.97c.26,0,.48-.06.69-.18.2-.12.36-.29.48-.51s.18-.48.18-.78-.06-.57-.18-.79c-.12-.22-.28-.38-.48-.5-.2-.12-.43-.18-.69-.18s-.49.06-.69.18c-.2.12-.36.29-.48.5-.12.22-.18.48-.18.79s.06.56.18.78c.12.22.28.39.48.51.2.12.43.18.69.18Z"></path><path d="M97.23,239.15v-5.3h1.47v1.5l-.21-.43c.16-.37.41-.66.76-.85.35-.19.77-.29,1.27-.29v1.42c-.07,0-.13-.01-.18-.01-.05,0-.11,0-.17,0-.42,0-.76.12-1.02.36s-.39.61-.39,1.12v2.5h-1.54Z"></path><path d="M104.02,239.23c-.6,0-1.13-.12-1.59-.35-.46-.24-.81-.56-1.06-.97-.25-.41-.37-.88-.37-1.4s.12-1,.37-1.41c.25-.41.58-.73,1.01-.97.43-.23.91-.35,1.45-.35s.99.11,1.4.33c.42.22.75.54.99.95.24.41.36.9.36,1.47,0,.06,0,.13,0,.2,0,.08-.01.15-.02.21h-4.31v-.9h3.5l-.59.27c0-.28-.06-.52-.17-.72-.11-.2-.27-.36-.46-.48-.2-.11-.43-.17-.69-.17s-.49.06-.7.17c-.2.12-.36.28-.47.48s-.17.45-.17.73v.24c0,.29.06.54.19.76.13.22.31.39.54.5.23.11.51.17.82.17.28,0,.53-.04.74-.13.21-.09.41-.21.59-.38l.82.89c-.24.28-.55.49-.92.64-.37.15-.79.22-1.27.22Z"></path><path d="M109.39,239.23c-.45,0-.89-.05-1.31-.16-.42-.11-.75-.24-.99-.41l.51-1.1c.24.15.53.28.86.37.33.1.66.14.98.14.35,0,.61-.04.75-.13.15-.09.22-.2.22-.35,0-.12-.06-.22-.17-.28s-.27-.11-.46-.14c-.19-.03-.4-.06-.63-.1-.23-.03-.45-.08-.68-.13s-.44-.14-.63-.25c-.19-.11-.34-.26-.46-.45-.12-.19-.17-.44-.17-.74,0-.34.1-.63.29-.89.19-.26.47-.46.84-.61.37-.15.81-.22,1.32-.22.36,0,.73.04,1.1.12.37.08.69.19.94.34l-.51,1.09c-.26-.15-.51-.25-.77-.31-.26-.06-.51-.08-.75-.08-.34,0-.59.05-.75.14-.16.09-.24.21-.24.35,0,.13.06.23.17.3.11.07.27.12.46.16s.4.07.63.1c.23.03.45.07.68.13.23.06.44.14.63.25.19.11.34.26.46.44.12.19.18.43.18.73,0,.33-.1.62-.3.87-.2.25-.48.45-.85.6s-.82.22-1.35.22Z"></path><path d="M115.47,239.23c-.6,0-1.13-.12-1.59-.35-.46-.24-.81-.56-1.06-.97-.25-.41-.37-.88-.37-1.4s.12-1,.37-1.41c.25-.41.58-.73,1.01-.97.43-.23.91-.35,1.45-.35s.99.11,1.4.33c.42.22.75.54.99.95.24.41.36.9.36,1.47,0,.06,0,.13,0,.2,0,.08-.01.15-.02.21h-4.31v-.9h3.5l-.59.27c0-.28-.06-.52-.17-.72-.11-.2-.27-.36-.46-.48-.2-.11-.43-.17-.69-.17s-.49.06-.7.17c-.2.12-.36.28-.47.48s-.17.45-.17.73v.24c0,.29.06.54.19.76.13.22.31.39.54.5.23.11.51.17.82.17.28,0,.53-.04.74-.13.21-.09.41-.21.59-.38l.82.89c-.24.28-.55.49-.92.64-.37.15-.79.22-1.27.22Z"></path><path d="M122.28,233.77c.42,0,.8.08,1.13.25.33.17.59.42.78.77.19.34.29.79.29,1.33v3.04h-1.54v-2.8c0-.43-.09-.74-.28-.95-.19-.2-.45-.31-.79-.31-.24,0-.46.05-.66.15-.19.1-.34.26-.45.47s-.16.48-.16.81v2.62h-1.54v-5.3h1.47v1.47l-.28-.44c.19-.36.46-.63.82-.82.35-.19.76-.29,1.21-.29Z"></path><path d="M125.24,235.15v-1.18h3.68v1.18h-3.68ZM128.04,239.23c-.62,0-1.11-.16-1.46-.48-.35-.32-.52-.79-.52-1.42v-4.65h1.54v4.63c0,.22.06.4.18.52s.28.18.48.18c.24,0,.45-.07.62-.2l.41,1.08c-.16.11-.35.2-.57.25-.22.06-.45.08-.68.08Z"></path><path d="M130.93,233.11c-.28,0-.51-.08-.69-.25-.18-.16-.27-.37-.27-.61s.09-.45.27-.61c.18-.16.41-.25.69-.25s.51.08.69.23c.18.15.27.35.27.6,0,.26-.09.47-.26.64-.17.17-.41.25-.7.25ZM130.16,239.15v-5.3h1.54v5.3h-1.54Z"></path><path d="M136.35,233.77c.42,0,.8.08,1.13.25.33.17.59.42.78.77.19.34.29.79.29,1.33v3.04h-1.54v-2.8c0-.43-.09-.74-.28-.95-.19-.2-.45-.31-.79-.31-.24,0-.46.05-.66.15-.19.1-.34.26-.45.47s-.16.48-.16.81v2.62h-1.54v-5.3h1.47v1.47l-.28-.44c.19-.36.46-.63.82-.82.35-.19.76-.29,1.21-.29Z"></path><path d="M142.23,238.9c-.49,0-.94-.11-1.34-.32-.4-.21-.72-.51-.96-.9-.24-.39-.36-.83-.36-1.35s.12-.97.36-1.35.56-.68.96-.89c.4-.21.84-.32,1.34-.32.45,0,.84.09,1.18.27s.61.46.8.84c.19.38.29.86.29,1.45s-.1,1.07-.29,1.44c-.19.38-.46.66-.8.84s-.74.28-1.18.28ZM142.47,241.15c-.5,0-.98-.06-1.44-.18s-.85-.3-1.16-.55l.61-1.1c.22.18.51.33.85.44.34.11.69.16,1.02.16.55,0,.94-.12,1.19-.36s.37-.6.37-1.08v-.8l.1-1.33-.02-1.34v-1.14h1.46v4.42c0,.99-.26,1.71-.77,2.18-.51.47-1.25.7-2.21.7ZM142.54,237.64c.27,0,.51-.05.72-.16.21-.11.37-.26.49-.46.12-.2.18-.42.18-.68s-.06-.49-.18-.69c-.12-.19-.28-.34-.49-.45-.21-.11-.45-.16-.72-.16s-.51.05-.72.16c-.21.11-.38.26-.5.45-.12.19-.18.42-.18.69s.06.48.18.68c.12.2.29.35.5.46.21.11.45.16.72.16Z"></path></g><g><g><path d="M77.65,142.52l-1.29-3.54h-8.37l-1.21,3.54h-4.35l7.16-19.72h4.99l7.24,19.72h-4.18ZM69.2,135.35h5.79l-2.98-8.05-2.82,8.05Z" class="cls-18"></path><path d="M90.93,128.11c1.61,0,2.9.48,3.94,1.53,1.05,1.05,1.53,2.49,1.53,4.27v8.61h-3.78v-8.21c0-.97-.24-1.69-.8-2.17-.56-.48-1.21-.72-2.09-.72s-1.77.32-2.33.89c-.56.56-.89,1.45-.89,2.58v7.56h-3.78v-14.08h3.78v1.61c.89-1.29,2.33-1.93,4.35-1.93l.08.08Z" class="cls-18"></path><path d="M107.1,128.11c1.61,0,2.9.48,3.94,1.53,1.05,1.05,1.53,2.49,1.53,4.27v8.61h-3.78v-8.21c0-.97-.24-1.69-.8-2.17-.56-.48-1.21-.72-2.09-.72s-1.77.32-2.33.89c-.56.56-.89,1.45-.89,2.58v7.56h-3.78v-14.08h3.78v1.61c.89-1.29,2.33-1.93,4.35-1.93l.08.08Z" class="cls-18"></path><path d="M124.81,128.43h3.78v14.08h-3.78v-1.61c-.89,1.29-2.33,1.93-4.35,1.93s-2.9-.48-3.94-1.53c-1.05-1.05-1.53-2.49-1.53-4.27v-8.61h3.78v8.21c0,.97.24,1.69.8,2.17.56.48,1.21.72,2.09.72s1.77-.32,2.33-.89c.56-.56.89-1.45.89-2.58v-7.56l-.08-.08Z" class="cls-18"></path><path d="M142.43,128.43h3.78v14.08h-3.78v-1.69c-1.13,1.37-2.74,2.01-4.75,2.01s-3.62-.72-4.99-2.17-2.09-3.22-2.09-5.23.72-3.86,2.09-5.23,3.06-2.17,4.99-2.17,3.62.72,4.75,2.01v-1.69.08ZM135.51,138.33c.72.72,1.69,1.13,2.9,1.13s2.17-.4,2.9-1.13c.8-.72,1.13-1.69,1.13-2.82s-.4-2.09-1.13-2.82c-.8-.72-1.77-1.13-2.9-1.13s-2.17.4-2.9,1.13-1.13,1.69-1.13,2.82.4,2.09,1.13,2.82Z" class="cls-18"></path><path d="M148.95,142.52v-20.52h3.78v20.52h-3.78Z" class="cls-18"></path><path d="M68.24,161.59h8.61v3.7h-12.63v-19.72h12.47v3.7h-8.45v4.18h7.73v3.62h-7.73v4.51Z" class="cls-33"></path><path d="M89.56,145.57h3.78v19.72h-3.78v-1.69c-1.13,1.37-2.66,2.01-4.75,2.01s-3.62-.72-5.07-2.17c-1.37-1.45-2.09-3.22-2.09-5.23s.72-3.86,2.09-5.23c1.37-1.45,3.06-2.17,5.07-2.17s3.62.72,4.75,2.01v-7.24ZM82.64,161.1c.8.72,1.77,1.13,2.9,1.13s2.17-.4,2.9-1.13,1.13-1.69,1.13-2.82-.4-2.09-1.13-2.82-1.69-1.13-2.9-1.13-2.17.4-2.9,1.13c-.8.72-1.13,1.69-1.13,2.82s.4,2.09,1.13,2.82Z" class="cls-33"></path><path d="M105.74,151.21h3.78v14.08h-3.78v-1.61c-.89,1.29-2.33,1.93-4.35,1.93s-2.9-.48-3.94-1.53c-1.05-1.05-1.53-2.49-1.53-4.27v-8.61h3.78v8.21c0,.97.24,1.69.8,2.17s1.21.72,2.09.72,1.77-.32,2.33-.89c.56-.56.89-1.45.89-2.58v-7.56l-.08-.08Z" class="cls-33"></path><path d="M119.18,165.69c-2.17,0-4.02-.72-5.47-2.17s-2.17-3.22-2.17-5.31.72-3.86,2.17-5.31c1.45-1.45,3.3-2.17,5.47-2.17s2.74.32,3.86.97c1.21.64,2.09,1.53,2.66,2.66l-3.22,1.85c-.32-.56-.72-1.05-1.37-1.37-.56-.32-1.29-.48-2.01-.48-1.13,0-2.09.32-2.82,1.05-.72.72-1.13,1.61-1.13,2.74s.4,2.01,1.13,2.74,1.69,1.05,2.82,1.05,1.45-.16,2.01-.48c.56-.32,1.05-.8,1.37-1.37l3.3,1.77c-.64,1.13-1.53,2.01-2.74,2.66s-2.49.97-3.86.97v.24Z" class="cls-33"></path><path d="M137.93,151.21h3.78v14.08h-3.78v-1.69c-1.13,1.37-2.74,2.01-4.75,2.01s-3.62-.72-4.99-2.17-2.09-3.22-2.09-5.23.72-3.86,2.09-5.23c1.37-1.45,3.06-2.17,4.99-2.17s3.62.72,4.75,2.01v-1.69.08ZM131,161.1c.72.72,1.69,1.13,2.9,1.13s2.17-.4,2.9-1.13c.8-.72,1.13-1.69,1.13-2.82s-.4-2.09-1.13-2.82-1.77-1.13-2.9-1.13-2.17.4-2.9,1.13-1.13,1.69-1.13,2.82.4,2.09,1.13,2.82Z" class="cls-33"></path><path d="M152.81,154.75h-3.3v5.87c0,.48.16.8.4,1.05s.64.32,1.13.4h1.85v3.3c-2.58.24-4.43,0-5.47-.72s-1.61-2.09-1.61-4.02v-5.87h-2.58v-3.46h2.58v-2.82l3.78-1.13v3.94h3.3v3.46h-.08Z" class="cls-33"></path><path d="M156.68,149.52c-.64,0-1.13-.24-1.61-.64s-.72-.97-.72-1.53.24-1.13.72-1.61c.48-.48.97-.64,1.61-.64s1.21.24,1.69.64.72.97.72,1.61-.24,1.13-.72,1.53c-.48.4-1.05.64-1.69.64ZM154.74,165.29v-14.08h3.78v14.08h-3.78Z" class="cls-33"></path><path d="M173.74,163.52c-1.53,1.45-3.3,2.17-5.47,2.17s-4.02-.72-5.47-2.17-2.25-3.22-2.25-5.23.72-3.86,2.25-5.23,3.3-2.17,5.47-2.17,4.02.72,5.47,2.17,2.25,3.22,2.25,5.23-.72,3.86-2.25,5.23ZM165.45,161.02c.72.72,1.69,1.13,2.82,1.13s2.09-.4,2.82-1.13,1.13-1.69,1.13-2.82-.4-2.01-1.13-2.82c-.72-.72-1.69-1.13-2.82-1.13s-2.09.4-2.82,1.13-1.13,1.69-1.13,2.82.4,2.01,1.13,2.82Z" class="cls-33"></path><path d="M186.05,150.8c1.61,0,2.9.48,3.94,1.53s1.53,2.49,1.53,4.27v8.61h-3.78v-8.21c0-.97-.24-1.69-.8-2.17-.56-.48-1.21-.72-2.09-.72s-1.77.32-2.33.89c-.56.56-.89,1.45-.89,2.58v7.56h-3.78v-14.08h3.78v1.61c.89-1.29,2.33-1.93,4.35-1.93l.08.08Z" class="cls-33"></path><path d="M71.13,188.47c-2.01,0-3.7-.4-5.15-1.29-1.37-.89-2.33-2.09-2.9-3.54l3.46-1.93c.8,2.01,2.33,2.98,4.67,2.98s1.93-.16,2.49-.56.8-.89.8-1.53-.32-1.21-.97-1.61-1.77-.8-3.46-1.29c-.89-.24-1.69-.56-2.33-.8s-1.29-.64-1.93-1.05-1.13-.97-1.45-1.69c-.32-.64-.48-1.45-.48-2.33,0-1.77.64-3.22,2.01-4.27,1.29-1.05,2.9-1.61,4.75-1.61s3.14.4,4.35,1.13,2.25,1.85,2.98,3.22l-3.38,1.85c-.8-1.69-2.09-2.49-3.94-2.49s-1.53.16-2.01.56-.72.8-.72,1.45.24,1.13.8,1.53,1.53.8,3.06,1.29c.64.16,1.13.32,1.45.4s.72.24,1.29.48.97.4,1.29.64c.32.16.64.4,1.05.72s.72.64.89.97.4.72.56,1.21.24.97.24,1.53c0,1.85-.72,3.3-2.09,4.35-1.37,1.05-3.14,1.61-5.39,1.61l.08.08Z" class="cls-18"></path><path d="M89.96,173.98h3.78v14.08h-3.78v-1.61c-.89,1.29-2.33,1.93-4.35,1.93s-2.9-.48-3.94-1.53c-1.05-1.05-1.53-2.49-1.53-4.27v-8.61h3.78v8.21c0,.97.24,1.69.8,2.17.56.48,1.21.72,2.09.72s1.77-.32,2.33-.89c.56-.56.89-1.45.89-2.58v-7.56l-.08-.08Z" class="cls-18"></path><path d="M112.66,173.58c1.69,0,2.98.56,4.02,1.61.97,1.05,1.53,2.49,1.53,4.18v8.69h-3.78v-8.37c0-.8-.24-1.53-.64-1.93-.4-.48-1.05-.72-1.85-.72s-1.53.24-2.01.8-.72,1.37-.72,2.33v7.89h-3.78v-8.37c0-.8-.24-1.53-.64-1.93-.4-.48-1.05-.72-1.85-.72s-1.53.24-2.01.8-.72,1.37-.72,2.33v7.89h-3.78v-14.08h3.78v1.53c.89-1.29,2.25-1.85,4.1-1.85s3.14.64,3.94,2.01c.97-1.37,2.41-2.01,4.35-2.01l.08-.08Z" class="cls-18"></path><path d="M136.88,173.58c1.69,0,2.98.56,4.02,1.61.97,1.05,1.53,2.49,1.53,4.18v8.69h-3.78v-8.37c0-.8-.24-1.53-.64-1.93-.4-.48-1.05-.72-1.85-.72s-1.53.24-2.01.8-.72,1.37-.72,2.33v7.89h-3.78v-8.37c0-.8-.24-1.53-.64-1.93-.4-.48-1.05-.72-1.85-.72s-1.53.24-2.01.8-.72,1.37-.72,2.33v7.89h-3.78v-14.08h3.78v1.53c.89-1.29,2.25-1.85,4.1-1.85s3.14.64,3.94,2.01c.97-1.37,2.41-2.01,4.35-2.01l.08-.08Z" class="cls-18"></path><path d="M146.78,172.29c-.64,0-1.13-.24-1.61-.64s-.72-.97-.72-1.53.24-1.13.72-1.61c.48-.48.97-.64,1.61-.64s1.21.24,1.69.64c.48.48.72.97.72,1.61s-.24,1.13-.72,1.53c-.48.4-1.05.64-1.69.64ZM144.93,188.06v-14.08h3.78v14.08h-3.78Z" class="cls-18"></path><path d="M159.81,177.44h-3.3v5.87c0,.48.16.8.4,1.05s.64.32,1.13.4h1.85v3.3c-2.58.24-4.43,0-5.47-.72s-1.61-2.09-1.61-4.02v-5.87h-2.58v-3.46h2.58v-2.82l3.78-1.13v3.94h3.3v3.46h-.08Z" class="cls-18"></path><path d="M171.56,174.22l-1.53,5.47h-2.17l.8-5.47h2.9,0Z" class="cls-18"></path><path d="M172.61,188.06v-2.01l4.91-4.83c1.13-1.13,1.61-2.01,1.61-2.74s-.16-.97-.56-1.29c-.32-.32-.8-.48-1.37-.48-1.05,0-1.85.56-2.41,1.61l-2.41-1.37c.48-.97,1.13-1.69,1.93-2.17.89-.48,1.77-.72,2.82-.72s2.41.4,3.38,1.21,1.37,1.85,1.37,3.14c0,1.45-.8,2.9-2.33,4.43l-2.82,2.74h5.39v2.66h-9.58l.08-.16Z" class="cls-18"></path><path d="M187.98,179.21c1.37,0,2.58.4,3.46,1.21s1.45,1.93,1.45,3.3-.48,2.58-1.53,3.3-2.17,1.21-3.62,1.21-2.17-.24-3.06-.72c-.89-.48-1.53-1.21-1.93-2.17l2.41-1.37c.32,1.13,1.21,1.69,2.58,1.69s1.29-.16,1.69-.48c.4-.32.64-.8.64-1.37s-.16-1.05-.56-1.37-.97-.48-1.61-.48h-4.35l.56-7.64h8.13v2.58h-5.55l-.16,2.49h1.45v-.16Z" class="cls-18"></path></g><g><g><path d="M76.28,110.57v-.24h0c.72,0,1.21,0,1.45-.16,0,0,.08,0,.16-.08v-7.24h-.16c-.08,0-.24,0-.56-.08h-.89v-.24h7.89v3.3h-.32c0-.72-.16-1.29-.48-1.85-.4-.72-1.05-1.13-1.77-1.13h-.97c-.32,0-.56,0-.8.08,0,0-.08,0-.08.08v3.3c.8,0,1.29-.08,1.53-.24.32-.24.48-.97.64-2.09h.24v5.07h-.24c-.16-1.21-.32-1.85-.64-2.17-.16-.16-.72-.24-1.53-.24v3.7l.16.16h1.45c.97,0,1.61-.24,2.09-.8s.8-1.45.89-2.74h.32v3.86h-8.29l-.08-.24Z" class="cls-18"></path><path d="M91.09,110.17c-.48,0-.8,0-1.05-.08h-.08c-.08,0,0,0,0,0v-7.89l-2.98.24v.24h1.37s.16,0,.16.08v3.3c0-.16-.08-.24-.16-.4-.24-.4-.56-.64-.97-.64-.72,0-1.37.32-1.77,1.05-.4.56-.56,1.13-.56,1.77,0,.89.24,1.61.64,2.09s.89.72,1.53.72.89-.24,1.13-.72c0-.16.16-.24.16-.4v1.13l2.49-.24v-.24h.08ZM88.19,109.84c-.24.4-.48.64-.8.64-.4,0-.72-.24-.8-.8-.08-.32-.16-.97-.16-1.85s0-1.69.24-2.01c.16-.4.4-.56.8-.56s.56.24.8.64c.16.4.32,1.05.32,1.93s-.16,1.53-.4,2.01h0Z" class="cls-18"></path><path d="M95.28,109.44c0,.16-.16.32-.24.48-.24.4-.64.64-.97.64h-.32c-.48,0-.89-.16-1.21-.48-.24-.24-.4-.64-.4-.97v-3.54h-1.05v-.24l2.41-.16v4.18c0,.4,0,.72.16.8.08.16.24.16.4.16.32,0,.64-.24.89-.64.24-.48.4-.97.4-1.45v-2.66s-.08,0-.16-.08h-1.05v-.24l2.66-.16v4.91h0c0,.16.24.16.89.16h0v.24l-2.41.24v-1.21Z" class="cls-18"></path><path d="M100.26,110.65c-.56,0-1.13-.24-1.53-.64-.56-.56-.89-1.21-.89-2.01s.32-1.61.89-2.17c.48-.48,1.05-.72,1.61-.72s.72,0,1.05.16c.48.16.8.48.89.97v.4c0,.32-.16.48-.4.64-.08,0-.24.08-.32.08s-.32,0-.48-.16-.24-.32-.24-.48,0-.32.16-.48c.08-.08.24-.16.4-.16,0-.24-.16-.4-.32-.48-.16-.16-.4-.24-.72-.24-.4,0-.72.16-.89.56s-.24,1.05-.24,1.93.08,1.45.32,1.85.48.64.89.64.8-.16,1.13-.48c.4-.4.56-.97.56-1.69h.24c0,.8-.16,1.45-.56,1.85s-.97.64-1.61.64h.08Z" class="cls-18"></path><path d="M108.55,108.8v-.64h-.24v.89c0,.4,0,.72-.08.97,0,.16-.16.32-.4.32s-.32-.08-.4-.4v-3.62c0-.32-.16-.64-.48-.8-.32-.24-.8-.4-1.45-.4s-.72,0-1.05.16c-.48.16-.8.4-.89.72v.4c0,.24.16.48.4.64.08,0,.24.08.32.08.16,0,.32,0,.48-.16s.24-.32.24-.48,0-.32-.16-.48c-.08-.16-.24-.24-.4-.24s0,0,0,0c0-.16.16-.24.32-.32.24-.08.48-.16.72-.16.4,0,.56.08.64.16.08.08.16.32.16.64v.72c0,.32,0,.48-.24.56-.16.08-.48.16-.97.16s-.97.24-1.29.56c-.4.32-.56.72-.56,1.21s.16.89.56,1.13c.24.16.56.24.97.24s.64,0,.89-.16c.32-.16.56-.32.72-.72.08.24.24.48.4.64s.48.16.89.16.8-.08.97-.32c.16-.16.16-.48.16-1.05v-.48l-.24.08ZM106.06,109.12c0,.4-.16.72-.4.97s-.56.4-.89.4-.4-.08-.48-.24-.16-.48-.16-.97.08-.8.24-1.05c.16-.24.32-.32.56-.4.16,0,.4,0,.56-.08.16,0,.32-.08.48-.24v1.69l.08-.08Z" class="cls-18"></path><path d="M110.97,110.65c-.48,0-.89-.16-1.13-.4s-.4-.64-.4-1.13v-3.54h-1.05v-.24h0c.64-.16,1.21-.56,1.53-1.21.24-.48.4-1.05.4-1.69h.32v2.66h1.45v.48h-1.45v4.27c0,.32.24.4.48.4s.48-.16.64-.48c0-.24.08-.72.08-1.45v-.64h.24v1.21c0,.64,0,1.05-.24,1.21-.16.32-.56.48-1.13.48l.24.08Z" class="cls-18"></path><path d="M112.82,110.57v-.24h.64c.16,0,.32,0,.48-.08v-4.51c0-.08-.08-.16-.16-.16h-1.05v-.24l2.58-.24v5.15h.08c.16,0,.56.08,1.05.08h0v.24h-3.78.16Z" class="cls-18"></path><path d="M114.67,103.73c-.24,0-.4,0-.56-.24-.16-.16-.24-.32-.24-.56s0-.4.24-.56c.16-.16.32-.24.56-.24s.4,0,.56.24c.16.16.24.32.24.56s0,.4-.24.56c-.16.16-.32.24-.56.24Z" class="cls-18"></path><path d="M120.87,105.74c-.48-.48-1.13-.72-1.77-.72s-1.21.24-1.77.72c-.56.56-.89,1.21-.89,2.09s.32,1.61.89,2.09c.48.48,1.13.72,1.77.72s1.21-.24,1.77-.72c.56-.56.89-1.21.89-2.09s-.32-1.53-.89-2.09ZM120.14,109.84c-.16.4-.48.64-.97.64s-.8-.24-.97-.64-.24-1.13-.24-2.01.08-1.53.32-2.01c.16-.4.48-.64.97-.64s.8.24,1.05.64c.16.4.24,1.05.24,1.93s-.08,1.61-.32,2.01l-.08.08Z" class="cls-18"></path><path d="M128.59,110.33h-.89v-3.7c0-.4-.16-.72-.4-.97-.32-.32-.72-.48-1.29-.48s-.24,0-.48,0-.56.24-.8.64c-.08.16-.16.32-.24.4v-1.13l-2.41.24v.24h.89v4.67c-.16,0-.32,0-.48.08h-.56v.24h3.14v-.24h-.72v-2.82c0-.56.24-1.05.4-1.45.24-.48.48-.72.89-.72s.4.16.56.48c0,.24.08.48.08.89v3.54c-.16,0-.24,0-.4.08h-.16v.24h2.98v-.24h-.08Z" class="cls-18"></path></g><g><rect height="12.55" width="12.55" y="102.28" x="62.28" class="cls-9"></rect><path d="M65.34,108.48h1.29c.4,0,.64-.24.64-.64v-.4h.24v2.33h-.24v-.4c0-.4-.32-.64-.64-.64h-1.37v1.37h0v1.29c0,.08.4.16.48.16h1.45c.16,0,.32-.08.48-.16.48-.24.8-.48.8-1.05h.08v1.53h-5.15c.16-.08.72-.08.8-.32v-5.47h-.08c-.16,0-.48-.08-.64-.08h0c0-.08,10.14-.08,10.14-.08v1.69h-.16c0-.48-.16-.89-.48-1.13-.32-.24-.89-.32-1.29-.32s-.16,0-.16,0v5.47h.16c.24,0,.56.08.8.08h0c0,.08-2.9.08-2.9.08h0c.24-.08.56-.16.8-.16,0,0,.08,0,.16-.08v-5.47h-.16c-.4,0-.97,0-1.21.32-.32.24-.4.72-.48,1.13h-.16c0-.24,0-.48-.08-.64-.08-.64-.48-.64-1.05-.8h-1.21c-.24,0-.48,0-.72.08,0,0-.08,0-.08.08v.97h0v1.37" class="cls-7"></path></g><g><path d="M77.89,112.9v.89h-.16c0-.24-.08-.4-.32-.4h-.24v1.05l.08.08c.08.08.08,0,.08,0h.16v.16h-1.21v-.16h.24l.08-.08v-2.09l-.08-.08h-.24v-.16h2.01v.64h0c0-.16-.08-.32-.16-.4,0-.08-.16-.16-.32-.16h-.56v1.05h.32c.24,0,.32-.16.32-.4h.16l-.16.08Z" class="cls-18"></path><path d="M79.02,113.47v1.05s.08,0,.24.08v.16h-.89v-.16c.08,0,.16,0,.24-.08v-1.21s-.08-.08-.24-.08h0c.24-.16.4-.16.56-.24v.32c.16-.16.32-.32.48-.32h.16v.24h-.56s-.08.08-.16.16l.16.08Z" class="cls-18"></path><path d="M81.6,113.95c0,.24-.08.48-.24.64-.16.16-.4.24-.64.24s-.48,0-.64-.24-.24-.4-.24-.64,0-.48.24-.64c.16-.16.4-.24.64-.24s.48.08.64.24c.16.16.24.4.24.64ZM81.27,113.95v-.48c0-.08,0-.16-.08-.16,0,0-.08-.08-.16-.16h-.24c-.32,0-.48.24-.48.8s0,.4.08.48c0,.16.24.24.4.24s.24,0,.32-.16.16-.16.16-.24v-.32h0Z" class="cls-18"></path><path d="M82.4,113.06v.24c.16-.16.4-.24.64-.24h.24c.08,0,.16.08.16.16.24-.16.4-.24.64-.24s.32,0,.4.16.16.24.16.4v.97s.08,0,.24.08v.16h-.89v-.16c.08,0,.16,0,.24-.08v-1.21s-.16-.08-.24-.08-.32,0-.4.16v1.13s.08,0,.24.08v.16h-.89v-.16c.08,0,.16,0,.24-.08v-.89c0-.24-.08-.4-.32-.4s-.24,0-.4.16v1.13s.08,0,.24.08v.16h-.89v-.16c.08,0,.16,0,.24-.08v-1.21s-.08-.08-.24-.08h0c.24-.16.4-.16.56-.24v.08Z" class="cls-18"></path><path d="M88.03,114.75h-1.21v-.16h.24l.08-.08c.08-.08,0-.08,0-.16v-2.09h-.48c-.16,0-.24,0-.32.16,0,.08-.16.24-.16.4h-.08v-.64h2.58v.64h0c0-.16-.16-.32-.16-.4s-.16-.16-.32-.16h-.48v2.25l.08.08c.08.08.08,0,.08,0h.16v.16h0Z" class="cls-18"></path><path d="M90.77,114.75h-.89v-.16c.08,0,.16,0,.24-.08v-.97c0-.08,0-.16-.08-.24,0,0-.16-.08-.24-.08s-.32,0-.4.16v1.13s.08,0,.24.08v.16h-.89v-.16c.08,0,.16,0,.24-.08v-2.01c0-.24-.08-.32-.24-.32v-.16c.16,0,.4,0,.64-.08v1.29c.24-.16.4-.24.56-.24s.32,0,.4.16c.08.08.16.24.16.4v.97s.08,0,.24.08v.16h0Z" class="cls-18"></path><path d="M92.46,113.87h-1.13c0,.56.16.8.48.8s.4-.08.48-.32h.08c-.16.32-.4.48-.72.48s-.48-.08-.56-.24c-.16-.16-.24-.4-.24-.64s0-.48.24-.64c.16-.16.32-.24.56-.24s.4.08.48.24.16.32.16.56h.16ZM92.14,113.71h0c0-.32-.16-.48-.4-.48s-.24,0-.32.16c0,.08-.08.24-.08.4h.8v-.08Z" class="cls-18"></path><path d="M95.84,112.1v.64h0c0-.16-.08-.32-.16-.4s-.24-.16-.32-.16h-.56v1.05h.24c.16,0,.24,0,.24-.08,0,0,.08-.16.08-.32h.16v.89h-.16v-.24l-.08-.08h-.4v.89c0,.16,0,.24.08.24h.72s.16,0,.16-.08c0,0,.08-.08.16-.16,0-.16.08-.24.16-.4h.08v.8h-2.25v-.16h.24l.08-.08v-2.09l-.08-.08h-.24v-.16h2.01-.16Z" class="cls-18"></path><path d="M97.69,114.35h.08c-.08.32-.32.48-.64.48-.24,0-.48,0-.64-.24-.16-.16-.24-.32-.24-.56s0-.48.24-.64c.16-.16.32-.24.64-.24s.16,0,.24,0,.16,0,.24.08.08.08.08.16v.08c0,.08,0,0-.08,0h-.16v-.24h-.24q-.16,0-.24.08s-.16.16-.16.24v.64c0,.08.08.24.16.32.08.08.16.16.32.16s.32-.08.48-.32h-.08Z" class="cls-18"></path><path d="M99.78,113.95c0,.24-.08.48-.24.64-.16.16-.4.24-.64.24s-.48,0-.64-.24-.24-.4-.24-.64,0-.48.24-.64c.16-.16.4-.24.64-.24s.48.08.64.24c.16.16.24.4.24.64ZM99.38,113.95v-.48c0-.08,0-.16-.08-.16,0,0-.08-.08-.16-.16h-.24c-.32,0-.48.24-.48.8s0,.4.08.48c0,.16.24.24.4.24s.24,0,.32-.16.16-.16.16-.24v-.32h0Z" class="cls-18"></path><path d="M100.51,113.06v.24c.16-.16.4-.24.64-.24.32,0,.48.16.48.56v.97s.08,0,.24.08v.16h-.89v-.16c.08,0,.16,0,.24-.08v-.89c0-.24-.08-.4-.32-.4s-.24,0-.4.16v1.13s.08,0,.24.08v.16h-.89v-.16c.08,0,.16,0,.24-.08v-1.21s-.08-.08-.24-.08h0c.24-.16.4-.16.56-.24h.08Z" class="cls-18"></path><path d="M103.97,113.95c0,.24-.08.48-.24.64-.16.16-.4.24-.64.24s-.48,0-.64-.24-.24-.4-.24-.64,0-.48.24-.64c.16-.16.4-.24.64-.24s.48.08.64.24c.16.16.24.4.24.64ZM103.56,113.95v-.48c0-.08,0-.16-.08-.16,0,0-.08-.08-.16-.16h-.24c-.32,0-.48.24-.48.8s0,.4.08.48c0,.16.24.24.4.24s.24,0,.32-.16.16-.16.16-.24v-.32h0Z" class="cls-18"></path><path d="M104.69,113.06v.24c.16-.16.4-.24.64-.24h.24c.08,0,.16.08.16.16.24-.16.4-.24.64-.24s.32,0,.4.16.16.24.16.4v.97s.08,0,.24.08v.16h-.89v-.16c.08,0,.16,0,.24-.08v-1.21s-.16-.08-.24-.08-.32,0-.4.16v1.13s.08,0,.24.08v.16h-.89v-.16c.08,0,.16,0,.24-.08v-.89c0-.24-.08-.4-.32-.4s-.24,0-.4.16v1.13s.08,0,.24.08v.16h-.89v-.16c.08,0,.16,0,.24-.08v-1.21s-.08-.08-.24-.08h0c.24-.16.4-.16.56-.24v.08Z" class="cls-18"></path><path d="M107.99,113.06v1.53s.08,0,.24.08v.16h-.89v-.16c.08,0,.16,0,.24-.08v-1.21s-.08-.08-.24-.08h0c.16-.16.4-.16.64-.24h0ZM107.83,112.82h-.16c-.08,0,0-.08,0-.16v-.16h.32c.08,0,0,.08,0,.16v.16h-.16Z" class="cls-18"></path><path d="M109.84,114.35h.08c-.08.32-.32.48-.64.48-.24,0-.48,0-.64-.24-.16-.16-.24-.32-.24-.56s0-.48.24-.64c.16-.16.32-.24.64-.24s.16,0,.24,0,.16,0,.24.08.08.08.08.16v.08c0,.08,0,0-.08,0h-.16v-.24h-.24q-.16,0-.24.08s-.16.16-.16.24v.64c0,.08.08.24.16.32.08.08.16.16.32.16s.32-.08.48-.32h-.08Z" class="cls-18"></path><path d="M113.06,114.75h-1.21v-.16h.24l.08-.08c.08-.08,0-.08,0-.16v-2.09h-.48c-.16,0-.24,0-.32.16,0,.08-.16.24-.16.4h-.08v-.64h2.58v.64h0c0-.16-.16-.32-.16-.4s-.16-.16-.32-.16h-.48v2.25l.08.08c.08.08.08,0,.08,0h.16v.16h0Z" class="cls-18"></path><path d="M114.43,113.06v1.53s.08,0,.24.08v.16h-.89v-.16c.08,0,.16,0,.24-.08v-1.21s-.08-.08-.24-.08h0c.16-.16.4-.16.64-.24h0ZM114.27,112.82h-.16c-.08,0,0-.08,0-.16v-.16h.32c.08,0,0,.08,0,.16v.16h-.16Z" class="cls-18"></path><path d="M115.31,113.06v.24c.16-.16.4-.24.64-.24h.24c.08,0,.16.08.16.16.24-.16.4-.24.64-.24s.32,0,.4.16.16.24.16.4v.97s.08,0,.24.08v.16h-.89v-.16c.08,0,.16,0,.24-.08v-1.21s-.16-.08-.24-.08-.32,0-.4.16v1.13s.08,0,.24.08v.16h-.89v-.16c.08,0,.16,0,.24-.08v-.89c0-.24-.08-.4-.32-.4s-.24,0-.4.16v1.13s.08,0,.24.08v.16h-.89v-.16c.08,0,.16,0,.24-.08v-1.21s-.08-.08-.24-.08h0c.24-.16.4-.16.56-.24v.08Z" class="cls-18"></path><path d="M119.58,113.87h-1.13c0,.56.16.8.48.8s.4-.08.48-.32h.08c-.16.32-.4.48-.72.48s-.48-.08-.56-.24c-.16-.16-.24-.4-.24-.64s0-.48.24-.64c.16-.16.32-.24.56-.24s.4.08.48.24c.16.16.16.32.16.56h.16ZM119.26,113.71h0c0-.32-.16-.48-.4-.48s-.24,0-.32.16c0,.08-.08.24-.08.4h.8v-.08Z" class="cls-18"></path><path d="M120.95,113.06v.56h-.08c0-.16,0-.24-.16-.32s-.16-.16-.32-.16h-.16v.16c0,.08,0,.16.08.16,0,0,.16.08.24.16.08,0,.16,0,.24.16.08,0,.16.08.24.16,0,0,.08.16.08.24,0,.16,0,.24-.16.4s-.24.16-.4.16-.32,0-.48-.16v.16h-.16v-.56h.08c0,.16,0,.24.16.32.08.08.16.16.32.16h.24s.08-.08.08-.16,0-.16-.08-.16c0,0-.16-.08-.24-.16s-.16-.08-.24-.16-.16-.08-.24-.16-.08-.16-.08-.24c0-.16,0-.24.16-.32.08-.08.16-.16.32-.16s.32,0,.4.16v-.16h.16v-.08Z" class="cls-18"></path></g></g><g><path d="M66.79,199.41v.89h-2.58v1.53h2.58v.89h-2.58v2.66h-1.21v-6.04h3.78v.08Z" class="cls-18"></path><path d="M68.8,201.42v2.49c0,.24,0,.48.24.56s.32.24.56.24.4,0,.56-.16c.16-.08.32-.24.4-.48v-2.66h1.13v4.02h-1.13v-.56c-.4.4-.8.64-1.29.64s-.8-.16-1.05-.4-.4-.64-.4-1.13v-2.58h1.13-.16Z" class="cls-18"></path><path d="M74.51,201.34c.64,0,1.13.16,1.45.56s.56.89.56,1.61v.16h-2.98c0,.32.16.64.4.8s.56.32.97.32.48,0,.72-.16c.24-.08.48-.24.72-.4v.8c-.48.32-1.05.48-1.77.48s-1.21-.16-1.61-.56-.64-.89-.64-1.53.16-1.13.56-1.53.89-.56,1.53-.56h.08ZM75.48,203.03c0-.32-.16-.48-.24-.72-.16-.16-.4-.24-.64-.24s-.48,0-.64.24c-.16.16-.24.4-.32.72h1.93-.08Z" class="cls-18"></path><path d="M78.46,199.41v6.04h-1.13v-6.04h1.13Z" class="cls-18"></path><path d="M80.15,199.57c.16,0,.32,0,.4.16.16.08.16.24.16.4s0,.32-.16.4c-.16.16-.24.16-.4.16s-.32,0-.4-.16c-.16-.16-.16-.24-.16-.4s0-.32.16-.4.24-.16.4-.16ZM80.71,201.42v4.02h-1.13v-4.02h1.13Z" class="cls-18"></path><path d="M84.17,201.34c.48,0,.8.16,1.05.4s.4.64.4,1.13v2.58h-1.13v-2.41c0-.24,0-.48-.16-.64s-.32-.24-.56-.24-.32,0-.48.16-.32.24-.48.48v2.66h-1.13v-4.02h1.13v.56c.24-.24.4-.4.64-.48s.48-.16.72-.16h0Z" class="cls-18"></path><path d="M90.53,201.42v.72h-.72c.08.16.16.24.24.4v.4c0,.32-.16.64-.4.89s-.56.4-1.13.48c-.32,0-.48,0-.56.08-.08,0-.16.08-.16.24s0,.16.16.16c.08,0,.32.08.56.16.64.08,1.13.24,1.37.48.32.16.48.48.48.8s-.16.72-.56.97c-.32.24-.89.32-1.53.32s-1.13-.08-1.53-.32-.56-.48-.56-.89.4-.89,1.13-1.05c-.32-.16-.48-.32-.48-.48s.24-.48.72-.56h0c-.32-.08-.56-.24-.8-.48s-.32-.48-.32-.8c0-.4.16-.8.48-1.05s.8-.4,1.37-.4h2.17l.08-.08ZM87.31,206.25c0,.32.4.56,1.13.56s.56,0,.72-.16c.16-.08.24-.24.24-.4s-.08-.32-.32-.4-.48-.16-.89-.16-.48,0-.72.16c-.16.08-.24.24-.24.4h.08ZM87.55,202.87c0,.24,0,.4.24.48.16.16.32.24.56.24s.4,0,.56-.24.24-.32.24-.56,0-.4-.24-.48c-.16-.16-.32-.16-.56-.16s-.4,0-.56.24-.24.32-.24.48h0Z" class="cls-18"></path><path d="M94.79,200.37h.08v1.05h1.45v.8h-1.45v1.85c0,.16,0,.32.16.4.08.08.24.16.48.16s.56-.08.89-.24v.89c-.4.16-.8.24-1.13.24s-.8-.16-1.13-.4c-.24-.24-.4-.56-.4-.97v-1.93h-.64v-.16l1.69-1.69h0Z" class="cls-18"></path><path d="M98.09,199.41v2.58h0c.32-.4.8-.64,1.29-.64s.8.16,1.05.4.4.64.4,1.13v2.58h-1.13v-2.33c0-.24,0-.48-.16-.64s-.32-.24-.56-.24-.32,0-.48.16c-.16.08-.32.24-.48.48v2.66h-1.13v-6.04h1.13l.08-.08Z" class="cls-18"></path><path d="M103.81,201.34c.64,0,1.13.16,1.45.56s.56.89.56,1.61v.16h-2.98c0,.32.16.64.4.8s.56.32.97.32.48,0,.72-.16c.24-.08.48-.24.72-.4v.8c-.48.32-1.05.48-1.77.48s-1.21-.16-1.61-.56-.64-.89-.64-1.53.16-1.13.56-1.53.89-.56,1.53-.56h.08ZM104.77,203.03c0-.32-.16-.48-.24-.72-.16-.16-.4-.24-.64-.24s-.48,0-.64.24c-.16.16-.24.4-.32.72h1.93-.08Z" class="cls-18"></path><path d="M113.3,199.41v.89h-2.82v1.61h2.74v.89h-2.74v1.69h2.9v.89h-4.1v-6.04h4.02v.08Z" class="cls-18"></path><path d="M117.16,201.5v-2.09h1.13v6.04h-1.93c-.64,0-1.21-.16-1.61-.56s-.56-.89-.56-1.53.08-.72.24-1.05c.16-.32.48-.56.8-.72s.64-.24,1.05-.24.64,0,.97.16h-.08ZM116.6,204.64h.56v-2.33c-.24-.08-.48-.16-.72-.16-.4,0-.64.08-.89.32-.24.24-.32.48-.32.89,0,.89.48,1.29,1.37,1.29h0Z" class="cls-18"></path><path d="M120.38,201.42v2.49c0,.24,0,.48.24.56s.32.24.56.24.4,0,.56-.16c.16-.08.32-.24.4-.48v-2.66h1.13v4.02h-1.13v-.56c-.4.4-.8.64-1.29.64s-.8-.16-1.05-.4-.4-.64-.4-1.13v-2.58h1.13-.16Z" class="cls-18"></path><path d="M126.26,201.34c.48,0,.97.08,1.29.24v.89c-.4-.24-.72-.32-1.13-.32s-.64.08-.89.32c-.24.24-.32.56-.32.89s.08.64.32.89c.24.24.56.32.97.32s.64-.08,1.13-.32v.89c-.4.16-.89.24-1.37.24-.64,0-1.21-.16-1.61-.56s-.64-.89-.64-1.45.24-1.13.64-1.53.97-.56,1.61-.56v.08Z" class="cls-18"></path><path d="M129.96,201.34c.56,0,.97.08,1.21.32.32.24.4.56.4.89v1.93c0,.16,0,.24.16.24h.24c.08,0,.16-.08.24-.16v.64c-.4.24-.72.32-1.05.32s-.32,0-.48-.08c-.08,0-.16-.16-.24-.32-.4.32-.8.4-1.29.4s-.56-.08-.8-.32c-.24-.16-.32-.4-.32-.72s.08-.64.32-.8.56-.4,1.13-.56l.89-.24v-.16c0-.4-.24-.56-.72-.56s-.48,0-.72.16c-.24.08-.48.24-.72.48v-.97c.48-.32.97-.48,1.61-.48h.16ZM129.23,204.4c0,.16,0,.24.16.32.08.08.24.16.32.16.24,0,.48-.08.72-.32v-1.05c-.32.08-.56.16-.72.32-.16.08-.32.16-.4.24-.08.08-.16.24-.16.32h.08Z" class="cls-18"></path><path d="M133.98,200.37h.08v1.05h1.45v.8h-1.45v1.85c0,.16,0,.32.16.4.08.08.24.16.48.16s.56-.08.89-.24v.89c-.4.16-.8.24-1.13.24s-.8-.16-1.13-.4c-.24-.24-.4-.56-.4-.97v-1.93h-.64v-.16l1.69-1.69h0Z" class="cls-18"></path><path d="M136.72,199.57c.16,0,.32,0,.4.16.16.08.16.24.16.4s0,.32-.16.4c-.16.16-.24.16-.4.16s-.32,0-.4-.16c-.16-.16-.16-.24-.16-.4s0-.32.16-.4.24-.16.4-.16ZM137.28,201.42v4.02h-1.13v-4.02h1.13Z" class="cls-18"></path><path d="M140.5,201.34c.4,0,.8.08,1.21.24s.64.4.8.72.32.64.32,1.05-.08.8-.24,1.13-.48.56-.8.72-.72.24-1.21.24-.8-.08-1.21-.24c-.4-.16-.64-.4-.8-.72-.16-.32-.24-.64-.24-1.13s.08-.72.32-1.05c.16-.32.48-.56.8-.72s.72-.24,1.21-.24h-.16ZM139.29,203.43c0,.4.08.72.32.97.24.24.48.32.8.32s.64-.08.89-.32.32-.56.32-.97-.08-.72-.32-.97c-.24-.24-.48-.32-.8-.32s-.64.08-.8.32c-.24.24-.32.56-.32.97h-.08Z" class="cls-18"></path><path d="M146.05,201.34c.48,0,.8.16,1.05.4s.4.64.4,1.13v2.58h-1.13v-2.41c0-.24,0-.48-.16-.64s-.32-.24-.56-.24-.32,0-.48.16-.32.24-.48.48v2.66h-1.13v-4.02h1.13v.56c.24-.24.4-.4.64-.48s.48-.16.72-.16h0Z" class="cls-18"></path><path d="M155.23,199.41v.89h-2.82v1.61h2.74v.89h-2.74v1.69h2.9v.89h-4.1v-6.04h4.02v.08Z" class="cls-18"></path><path d="M158.2,201.34c.48,0,.97.08,1.29.24v.89c-.4-.24-.72-.32-1.13-.32s-.64.08-.89.32c-.24.24-.32.56-.32.89s.08.64.32.89c.24.24.56.32.97.32s.64-.08,1.13-.32v.89c-.4.16-.89.24-1.37.24-.64,0-1.21-.16-1.61-.56s-.64-.89-.64-1.45.24-1.13.64-1.53.97-.56,1.61-.56v.08Z" class="cls-18"></path><path d="M162.47,201.34c.4,0,.8.08,1.21.24.32.16.64.4.8.72s.32.64.32,1.05-.08.8-.24,1.13-.48.56-.8.72-.72.24-1.21.24-.8-.08-1.21-.24c-.32-.16-.64-.4-.8-.72s-.24-.64-.24-1.13.08-.72.32-1.05c.16-.32.48-.56.8-.72s.72-.24,1.21-.24h-.16ZM161.34,203.43c0,.4.08.72.32.97.24.24.48.32.8.32s.64-.08.89-.32.32-.56.32-.97-.08-.72-.32-.97c-.24-.24-.48-.32-.8-.32s-.64.08-.8.32c-.24.24-.32.56-.32.97h-.08Z" class="cls-18"></path><path d="M168.02,201.34c.48,0,.8.16,1.05.4s.4.64.4,1.13v2.58h-1.13v-2.41c0-.24,0-.48-.16-.64s-.32-.24-.56-.24-.32,0-.48.16-.32.24-.48.48v2.66h-1.13v-4.02h1.13v.56c.24-.24.4-.4.64-.48s.48-.16.72-.16h0Z" class="cls-18"></path><path d="M172.61,201.34c.4,0,.8.08,1.21.24s.64.4.8.72.32.64.32,1.05-.08.8-.24,1.13-.48.56-.8.72-.72.24-1.21.24-.8-.08-1.21-.24-.64-.4-.8-.72-.24-.64-.24-1.13.08-.72.32-1.05c.16-.32.48-.56.8-.72s.72-.24,1.21-.24h-.16ZM171.48,203.43c0,.4.08.72.32.97.24.24.48.32.8.32s.64-.08.89-.32.32-.56.32-.97-.08-.72-.32-.97c-.24-.24-.48-.32-.8-.32s-.64.08-.8.32c-.24.24-.32.56-.32.97h-.08Z" class="cls-18"></path><path d="M178.16,201.34c.32,0,.56,0,.8.24.24.16.4.32.48.56.24-.24.48-.48.72-.64s.48-.16.8-.16c.4,0,.8.16,1.05.4s.4.64.4,1.13v2.58h-1.13v-2.41c0-.24,0-.48-.16-.64s-.32-.24-.56-.24c-.32,0-.64.24-.97.64v2.66h-1.13v-2.41c0-.24,0-.48-.16-.64s-.32-.24-.56-.24-.32,0-.48.16c-.16.08-.32.24-.48.48v2.66h-1.13v-4.02h1.13v.56c.16-.24.4-.4.64-.48s.48-.16.72-.16h0Z" class="cls-18"></path><path d="M184.12,201.42l.97,2.17.97-2.17h1.21l-2.9,6.04h-1.21l1.37-2.74-1.61-3.3h1.21Z" class="cls-18"></path><path d="M63.41,212.2l.97,2.33.97-2.33h.72l.97,2.33.97-2.33h1.13l-1.85,4.1h-.48l-1.13-2.49-1.13,2.49h-.48l-1.85-4.1h1.21Z" class="cls-18"></path><path d="M70.33,210.35c.16,0,.32,0,.4.16.16.08.16.24.16.4s0,.32-.16.4c-.16.16-.24.16-.4.16s-.32,0-.4-.16c-.16-.16-.16-.24-.16-.4s0-.32.16-.4.24-.16.4-.16ZM70.81,212.2v4.02h-1.13v-4.02h1.13Z" class="cls-18"></path><path d="M73.07,211.16h.08v1.05h1.45v.8h-1.45v1.85c0,.16,0,.32.16.4.08.08.24.16.48.16s.56-.08.89-.24v.89c-.4.16-.8.24-1.13.24s-.8-.16-1.13-.4c-.24-.24-.4-.56-.4-.97v-1.93h-.64v-.16l1.69-1.69h0Z" class="cls-18"></path><path d="M76.36,210.19v2.58h0c.32-.4.8-.64,1.29-.64s.8.16,1.05.4.4.64.4,1.13v2.58h-1.13v-2.33c0-.24,0-.48-.16-.64-.16-.16-.32-.24-.56-.24s-.32,0-.48.16c-.16.08-.32.24-.48.48v2.66h-1.13v-6.04h1.13l.08-.08Z" class="cls-18"></path><path d="M85.46,210.19l2.74,6.04h-1.29l-.64-1.45h-2.82l-.64,1.45h-1.29l2.58-6.04h1.37ZM83.93,213.89h2.01l-1.05-2.41-.97,2.41Z" class="cls-18"></path><path d="M90.21,210.19v6.04h-1.21v-6.04h1.21Z" class="cls-18"></path><path d="M91.98,212.2c.16,0,.32,0,.48.16s.24.32.24.48,0,.32-.24.48c-.16.16-.32.16-.48.16s-.32,0-.48-.16-.24-.32-.24-.48,0-.32.16-.48.32-.16.48-.16h.08ZM91.98,215.02c.16,0,.32,0,.48.16s.24.32.24.48,0,.32-.24.48c-.16.16-.32.16-.48.16s-.32,0-.48-.16-.24-.32-.24-.48,0-.32.16-.48.32-.16.48-.16h.08Z" class="cls-18"></path><path d="M100.83,210.19v.89h-2.25v5.07h-1.21v-5.07h-2.25v-.89h5.71Z" class="cls-18"></path><path d="M102.68,210.19v2.58h0c.32-.4.8-.64,1.29-.64s.8.16,1.05.4.4.64.4,1.13v2.58h-1.13v-2.33c0-.24,0-.48-.16-.64-.16-.16-.32-.24-.56-.24s-.32,0-.48.16c-.16.08-.32.24-.48.48v2.66h-1.13v-6.04h1.13l.08-.08Z" class="cls-18"></path><path d="M108.31,212.12c.64,0,1.13.16,1.45.56s.56.89.56,1.61v.16h-2.98c0,.32.16.64.4.8s.56.32.97.32.48,0,.72-.16c.24-.08.48-.24.72-.4v.8c-.48.32-1.05.48-1.77.48s-1.21-.16-1.61-.56-.64-.89-.64-1.53.16-1.13.56-1.53.89-.56,1.53-.56h.08ZM109.28,213.81c0-.32-.16-.48-.24-.72-.16-.16-.4-.24-.64-.24s-.48,0-.64.24c-.16.16-.24.4-.32.72h1.93-.08Z" class="cls-18"></path><path d="M115.07,210.19v6.04h-1.21v-6.04h1.21Z" class="cls-18"></path><path d="M118.69,212.12c.48,0,.8.16,1.05.4s.4.64.4,1.13v2.58h-1.13v-2.41c0-.24,0-.48-.16-.64-.16-.16-.32-.24-.56-.24s-.32,0-.48.16-.32.24-.48.48v2.66h-1.13v-4.02h1.13v.56c.24-.24.4-.4.64-.48s.48-.16.72-.16h0Z" class="cls-18"></path><path d="M124,212.28v-2.09h1.13v6.04h-1.93c-.64,0-1.21-.16-1.61-.56s-.56-.89-.56-1.53.08-.72.24-1.05c.16-.32.48-.56.8-.72.32-.16.64-.24,1.05-.24s.64,0,.97.16h-.08ZM123.44,215.42h.56v-2.33c-.24-.08-.48-.16-.72-.16-.4,0-.64.08-.89.32-.24.24-.32.48-.32.89,0,.89.48,1.29,1.37,1.29h0Z" class="cls-18"></path><path d="M126.74,210.35c.16,0,.32,0,.4.16.16.08.16.24.16.4s0,.32-.16.4c-.16.16-.24.16-.4.16s-.32,0-.4-.16c-.16-.16-.16-.24-.16-.4s0-.32.16-.4.24-.16.4-.16ZM127.3,212.2v4.02h-1.13v-4.02h1.13Z" class="cls-18"></path><path d="M129.96,212.12c.56,0,.97.08,1.21.32.32.24.4.56.4.89v1.93c0,.16,0,.24.16.24h.24c.08,0,.16-.08.24-.16v.64c-.4.24-.72.32-1.05.32s-.32,0-.48-.08c-.08,0-.16-.16-.24-.32-.4.32-.8.4-1.29.4s-.56-.08-.8-.32c-.24-.16-.32-.4-.32-.72s.08-.64.32-.8.56-.4,1.13-.56l.89-.24v-.16c0-.4-.24-.56-.72-.56s-.48,0-.72.16c-.24.08-.48.24-.72.48v-.97c.48-.32.97-.48,1.61-.48h.16ZM129.23,215.18c0,.16,0,.24.16.32.08.08.24.16.32.16.24,0,.48-.08.72-.32v-1.05c-.32.08-.56.16-.72.32-.16.08-.32.16-.4.24-.08.08-.16.24-.16.32h.08Z" class="cls-18"></path><path d="M137.28,210.11c.64,0,1.21.16,1.77.4v1.05c-.64-.4-1.21-.56-1.69-.56s-.56,0-.72.16c-.16.08-.24.24-.24.48s.16.4.48.64c.08,0,.4.24,1.05.48.48.24.89.48,1.13.8.24.32.32.64.32,1.05s-.16.97-.56,1.29c-.4.32-.89.48-1.53.48s-.72,0-1.05-.16-.64-.24-.97-.4v-1.13c.64.56,1.29.8,1.85.8s.56,0,.72-.16.24-.32.24-.48-.16-.48-.48-.64c-.24-.16-.56-.32-1.05-.48-.48-.24-.89-.48-1.13-.72-.24-.32-.4-.64-.4-.97s.16-.89.56-1.21.89-.48,1.53-.48l.16-.24Z" class="cls-18"></path><path d="M141.31,211.16h.08v1.05h1.45v.8h-1.45v1.85c0,.16,0,.32.16.4.08.08.24.16.48.16s.56-.08.89-.24v.89c-.4.16-.8.24-1.13.24s-.8-.16-1.13-.4c-.24-.24-.4-.56-.4-.97v-1.93h-.64v-.16l1.69-1.69h0Z" class="cls-18"></path><path d="M145.57,212.12c.4,0,.8.08,1.21.24.32.16.64.4.8.72s.32.64.32,1.05-.08.8-.24,1.13-.48.56-.8.72-.72.24-1.21.24-.8-.08-1.21-.24c-.32-.16-.64-.4-.8-.72s-.24-.64-.24-1.13.08-.72.32-1.05c.16-.32.48-.56.8-.72.32-.16.72-.24,1.21-.24h-.16ZM144.44,214.22c0,.4.08.72.32.97.24.24.48.32.8.32s.64-.08.89-.32.32-.56.32-.97-.08-.72-.32-.97c-.24-.24-.48-.32-.8-.32s-.64.08-.8.32c-.24.24-.32.56-.32.97h-.08Z" class="cls-18"></path><path d="M151.12,212.12c.16,0,.32,0,.4.08s.32.16.48.32l-.4.97c-.32-.24-.56-.32-.8-.32s-.32,0-.48.16c-.16.16-.32.32-.4.48s-.16.4-.16.56v1.85h-1.13v-4.02h1.13v1.05h0c.16-.4.4-.64.64-.8s.4-.24.64-.24l.08-.08Z" class="cls-18"></path><path d="M153.22,212.2l.97,2.17.97-2.17h1.21l-2.9,6.04h-1.21l1.37-2.74-1.61-3.3h1.21Z" class="cls-18"></path></g><polygon points="141.31 69.45 25.26 69.45 25.26 216.23 53.75 216.23 53.75 201.58 39.91 201.58 39.91 84.09 145.17 84.09 145.17 105.02 159.81 105.02 159.81 87.96 159.81 69.45 141.31 69.45" class="cls-15"></polygon></g><g class="cls-20"><g class="cls-20"><path d="M78.74,367.36v-6.82h2.95c.61,0,1.14.1,1.58.3.44.2.78.48,1.02.85s.36.81.36,1.32-.12.94-.36,1.31c-.24.37-.58.65-1.02.85-.44.2-.97.3-1.58.3h-2.07l.7-.71v2.59h-1.58ZM80.32,364.94l-.7-.75h1.99c.49,0,.85-.1,1.09-.31.24-.21.36-.5.36-.87s-.12-.67-.36-.88c-.24-.21-.6-.31-1.09-.31h-1.99l.7-.75v3.87Z"></path><path d="M88.15,367.43c-.56,0-1.05-.12-1.48-.35s-.77-.55-1.02-.96c-.25-.41-.37-.87-.37-1.39s.12-.99.37-1.4c.25-.41.59-.72,1.02-.95.43-.23.93-.35,1.48-.35s1.05.12,1.48.35c.43.23.78.55,1.02.95.25.4.37.87.37,1.4s-.12.98-.37,1.39c-.25.41-.59.73-1.02.96-.44.23-.93.35-1.48.35ZM88.15,366.19c.25,0,.48-.06.68-.18.2-.12.36-.28.48-.5s.18-.48.18-.77-.06-.56-.18-.78c-.12-.21-.28-.38-.48-.5s-.43-.18-.68-.18-.48.06-.68.18-.36.28-.48.5c-.12.21-.18.47-.18.78s.06.56.18.77c.12.22.28.38.48.5.2.12.43.18.68.18Z"></path><path d="M93.09,367.36l-1.89-5.24h1.43l1.57,4.51h-.68l1.64-4.51h1.29l1.59,4.51h-.68l1.62-4.51h1.34l-1.9,5.24h-1.47l-1.39-3.87h.45l-1.44,3.87h-1.46Z"></path><path d="M103.47,367.43c-.6,0-1.12-.12-1.57-.35s-.8-.55-1.05-.96c-.25-.41-.37-.87-.37-1.39s.12-.99.37-1.4c.24-.41.58-.72,1-.95.42-.23.9-.35,1.43-.35s.98.11,1.39.33.74.53.98.93c.24.41.36.89.36,1.46,0,.06,0,.12,0,.2,0,.07-.01.14-.02.21h-4.26v-.89h3.46l-.58.26c0-.27-.06-.51-.17-.71-.11-.2-.26-.36-.46-.47-.19-.11-.42-.17-.68-.17s-.49.06-.69.17-.35.27-.46.48-.17.45-.17.73v.23c0,.29.06.54.19.75.13.22.3.38.54.5s.5.17.81.17c.28,0,.52-.04.74-.13.21-.08.4-.21.58-.38l.81.88c-.24.27-.54.48-.91.63s-.78.22-1.26.22Z"></path><path d="M107.01,367.36v-5.24h1.45v1.48l-.2-.43c.16-.37.41-.65.75-.84s.76-.29,1.26-.29v1.4c-.06,0-.12-.01-.18-.01-.05,0-.11,0-.17,0-.42,0-.75.12-1.01.36-.26.24-.38.61-.38,1.11v2.47h-1.52Z"></path><path d="M113.72,367.43c-.6,0-1.12-.12-1.57-.35s-.8-.55-1.05-.96c-.25-.41-.37-.87-.37-1.39s.12-.99.37-1.4c.24-.41.58-.72,1-.95.42-.23.9-.35,1.43-.35s.98.11,1.39.33.74.53.98.93c.24.41.36.89.36,1.46,0,.06,0,.12,0,.2,0,.07-.01.14-.02.21h-4.26v-.89h3.46l-.58.26c0-.27-.06-.51-.17-.71-.11-.2-.26-.36-.46-.47-.19-.11-.42-.17-.68-.17s-.49.06-.69.17-.35.27-.46.48-.17.45-.17.73v.23c0,.29.06.54.19.75.13.22.3.38.54.5s.5.17.81.17c.28,0,.52-.04.74-.13.21-.08.4-.21.58-.38l.81.88c-.24.27-.54.48-.91.63s-.78.22-1.26.22Z"></path><path d="M119.51,367.43c-.49,0-.94-.11-1.33-.34-.4-.22-.71-.54-.94-.94-.23-.4-.35-.88-.35-1.42s.12-1.03.35-1.43c.23-.4.54-.71.94-.93.4-.22.84-.33,1.33-.33.44,0,.83.1,1.16.29.33.2.59.49.77.89.18.4.27.9.27,1.52s-.09,1.12-.26,1.51c-.18.4-.43.7-.75.89-.33.19-.72.29-1.18.29ZM119.78,366.19c.25,0,.47-.06.67-.18.2-.12.36-.28.48-.5.12-.22.18-.48.18-.77s-.06-.56-.18-.78c-.12-.21-.28-.38-.48-.5s-.43-.18-.67-.18-.48.06-.68.18-.36.28-.48.5c-.12.21-.18.47-.18.78s.06.56.18.77.28.38.48.5c.2.12.43.18.68.18ZM121.15,367.36v-1.07l.03-1.56-.1-1.55v-3.05h1.52v7.23h-1.45Z"></path><path d="M126.87,367.36v-6.82h3.33c.86,0,1.5.16,1.93.49s.65.75.65,1.28c0,.36-.09.67-.26.93-.18.26-.42.47-.72.61-.31.14-.66.21-1.05.21l.19-.4c.43,0,.81.07,1.14.21.33.14.59.35.77.62s.28.61.28,1c0,.58-.23,1.04-.69,1.37-.46.33-1.14.49-2.03.49h-3.53ZM128.43,366.17h1.84c.41,0,.72-.07.93-.2.21-.13.32-.35.32-.64s-.11-.5-.32-.64c-.21-.14-.52-.21-.93-.21h-1.96v-1.15h1.68c.38,0,.68-.07.88-.2.2-.13.31-.34.31-.61s-.1-.47-.31-.6c-.2-.13-.5-.2-.88-.2h-1.57v4.44Z"></path><path d="M134.87,369.32c-.27,0-.54-.04-.81-.13-.27-.08-.48-.2-.65-.35l.56-1.08c.12.1.25.18.4.24.15.06.3.09.45.09.21,0,.38-.05.51-.15.13-.1.24-.27.35-.5l.27-.64.12-.17,1.88-4.52h1.46l-2.37,5.56c-.17.42-.36.75-.58.99-.22.24-.46.41-.72.51-.26.1-.55.15-.87.15ZM135.77,367.56l-2.34-5.44h1.57l1.81,4.38-1.04,1.06Z"></path></g></g><g class="cls-20"><g class="cls-20"><path d="M87.23,57.54v-6.82h2.95c.61,0,1.14.1,1.58.3.44.2.78.48,1.02.85.24.37.36.81.36,1.32s-.12.94-.36,1.31c-.24.37-.58.65-1.02.85-.44.2-.97.3-1.58.3h-2.07l.7-.71v2.59h-1.58ZM88.81,55.12l-.7-.75h1.99c.49,0,.85-.1,1.09-.31.24-.21.36-.5.36-.87s-.12-.67-.36-.88c-.24-.21-.6-.31-1.09-.31h-1.99l.7-.75v3.87Z"></path><path d="M94.15,57.54v-5.24h1.45v1.48l-.2-.43c.16-.37.41-.65.75-.84.34-.19.76-.29,1.26-.29v1.4c-.06,0-.12-.01-.18-.01s-.11,0-.17,0c-.42,0-.75.12-1.01.36-.26.24-.38.61-.38,1.11v2.47h-1.52Z"></path><path d="M100.86,57.61c-.6,0-1.12-.12-1.57-.35s-.8-.55-1.05-.96-.37-.87-.37-1.39.12-.99.37-1.4c.24-.41.58-.72,1-.95.42-.23.9-.35,1.43-.35s.98.11,1.39.33.74.53.98.93c.24.41.36.89.36,1.46,0,.06,0,.12,0,.2,0,.07-.01.14-.02.21h-4.26v-.89h3.46l-.58.26c0-.27-.06-.51-.17-.71s-.26-.36-.46-.47c-.19-.11-.42-.17-.68-.17s-.49.06-.69.17-.35.27-.46.48-.17.45-.17.73v.23c0,.29.06.54.19.75.13.22.3.38.54.5.23.11.5.17.81.17.28,0,.52-.04.74-.13.21-.08.4-.21.58-.38l.81.88c-.24.27-.54.48-.91.63-.36.15-.78.22-1.26.22Z"></path><path d="M106.17,57.61c-.45,0-.88-.05-1.29-.16-.41-.11-.74-.24-.98-.4l.51-1.09c.24.15.52.27.85.36.33.09.65.14.97.14.35,0,.6-.04.74-.13.15-.08.22-.2.22-.35,0-.12-.06-.22-.17-.28-.11-.06-.26-.11-.45-.14-.19-.03-.39-.06-.62-.1-.22-.03-.45-.08-.68-.13-.23-.05-.44-.14-.62-.25s-.34-.26-.45-.45-.17-.43-.17-.73c0-.33.1-.62.29-.88.19-.25.47-.45.83-.6.36-.15.8-.22,1.31-.22.36,0,.72.04,1.09.12.37.08.68.19.92.34l-.51,1.08c-.25-.15-.51-.25-.76-.31-.26-.06-.5-.08-.74-.08-.34,0-.58.05-.74.14-.16.09-.23.21-.23.35,0,.13.06.23.17.29s.26.12.45.16c.19.04.39.07.62.1.22.03.45.07.68.13.23.06.43.14.62.25s.34.25.45.44c.12.18.18.43.18.73,0,.32-.1.61-.29.86s-.48.45-.84.59c-.37.14-.81.21-1.34.21Z"></path><path d="M112.18,57.61c-.6,0-1.12-.12-1.57-.35s-.8-.55-1.05-.96-.37-.87-.37-1.39.12-.99.37-1.4c.24-.41.58-.72,1-.95.42-.23.9-.35,1.43-.35s.98.11,1.39.33.74.53.98.93c.24.41.36.89.36,1.46,0,.06,0,.12,0,.2,0,.07-.01.14-.02.21h-4.26v-.89h3.46l-.58.26c0-.27-.06-.51-.17-.71s-.26-.36-.46-.47c-.19-.11-.42-.17-.68-.17s-.49.06-.69.17-.35.27-.46.48-.17.45-.17.73v.23c0,.29.06.54.19.75.13.22.3.38.54.5.23.11.5.17.81.17.28,0,.52-.04.74-.13.21-.08.4-.21.58-.38l.81.88c-.24.27-.54.48-.91.63-.36.15-.78.22-1.26.22Z"></path><path d="M118.91,52.22c.42,0,.79.08,1.12.25.33.17.59.42.77.76s.28.78.28,1.31v3h-1.52v-2.77c0-.42-.09-.73-.28-.93-.18-.2-.45-.3-.78-.3-.24,0-.46.05-.65.15-.19.1-.34.25-.45.46-.11.21-.16.47-.16.8v2.59h-1.52v-5.24h1.45v1.45l-.27-.44c.19-.35.46-.62.81-.81.35-.19.75-.28,1.2-.28Z"></path><path d="M121.83,53.58v-1.17h3.63v1.17h-3.63ZM124.59,57.61c-.62,0-1.1-.16-1.44-.47s-.52-.78-.52-1.41v-4.6h1.52v4.58c0,.22.06.39.18.51.12.12.28.18.48.18.24,0,.44-.06.61-.2l.41,1.07c-.16.11-.34.19-.56.25-.22.05-.44.08-.68.08Z"></path><path d="M128.45,57.61c-.45,0-.88-.05-1.29-.16-.41-.11-.74-.24-.98-.4l.51-1.09c.24.15.52.27.85.36.33.09.65.14.97.14.35,0,.6-.04.74-.13.15-.08.22-.2.22-.35,0-.12-.06-.22-.17-.28-.11-.06-.26-.11-.45-.14-.19-.03-.39-.06-.62-.1-.22-.03-.45-.08-.68-.13-.23-.05-.44-.14-.62-.25s-.34-.26-.45-.45-.17-.43-.17-.73c0-.33.1-.62.29-.88.19-.25.47-.45.83-.6.36-.15.8-.22,1.31-.22.36,0,.72.04,1.09.12.37.08.68.19.92.34l-.51,1.08c-.25-.15-.51-.25-.76-.31-.26-.06-.5-.08-.74-.08-.34,0-.58.05-.74.14-.16.09-.23.21-.23.35,0,.13.06.23.17.29s.26.12.45.16c.19.04.39.07.62.1.22.03.45.07.68.13.23.06.43.14.62.25s.34.25.45.44c.12.18.18.43.18.73,0,.32-.1.61-.29.86s-.48.45-.84.59c-.37.14-.81.21-1.34.21Z"></path></g></g><g class="cls-20"><g class="cls-20"><path d="M73.63,419.41c-.53,0-1.01-.09-1.47-.26-.45-.17-.84-.42-1.17-.74-.33-.32-.59-.69-.77-1.12-.18-.43-.28-.9-.28-1.41s.09-.98.28-1.41c.19-.43.44-.8.78-1.12s.73-.56,1.17-.73c.45-.17.94-.26,1.47-.26.59,0,1.12.1,1.6.31s.88.5,1.2.9l-1.01.94c-.23-.27-.49-.47-.78-.6-.29-.13-.6-.2-.93-.2-.32,0-.61.05-.88.16s-.5.25-.69.45c-.2.2-.35.43-.45.69-.11.27-.16.56-.16.89s.05.62.16.89.26.5.45.69c.19.2.43.34.69.45.27.1.56.16.88.16.34,0,.65-.07.93-.2.29-.13.55-.34.78-.61l1.01.94c-.32.4-.73.7-1.2.91-.48.21-1.01.31-1.61.31Z"></path><path d="M79.7,419.38c-.56,0-1.05-.12-1.48-.35s-.77-.55-1.02-.96c-.25-.41-.37-.87-.37-1.39s.12-.99.37-1.4c.25-.41.59-.72,1.02-.95.43-.23.93-.35,1.48-.35s1.05.12,1.48.35c.43.23.78.55,1.02.95.25.4.37.87.37,1.4s-.12.98-.37,1.39c-.25.41-.59.73-1.02.96-.44.23-.93.35-1.48.35ZM79.7,418.13c.25,0,.48-.06.68-.18.2-.12.36-.28.48-.5s.18-.48.18-.77-.06-.56-.18-.78c-.12-.21-.28-.38-.48-.5s-.43-.18-.68-.18-.48.06-.68.18-.36.28-.48.5c-.12.21-.18.47-.18.78s.06.56.18.77c.12.22.28.38.48.5.2.12.43.18.68.18Z"></path><path d="M83.49,417.17v-1.22h2.76v1.22h-2.76Z"></path><path d="M87.55,419.3v-6.82h2.95c.61,0,1.14.1,1.58.3.44.2.78.48,1.02.85s.36.81.36,1.32-.12.94-.36,1.31c-.24.37-.58.65-1.02.85-.44.2-.97.3-1.58.3h-2.07l.7-.71v2.59h-1.58ZM89.13,416.88l-.7-.75h1.99c.49,0,.85-.1,1.09-.31.24-.21.36-.5.36-.87s-.12-.67-.36-.88c-.24-.21-.6-.31-1.09-.31h-1.99l.7-.75v3.87Z"></path><path d="M96.96,419.38c-.56,0-1.05-.12-1.48-.35s-.77-.55-1.02-.96c-.25-.41-.37-.87-.37-1.39s.12-.99.37-1.4c.25-.41.59-.72,1.02-.95.43-.23.93-.35,1.48-.35s1.05.12,1.48.35c.43.23.78.55,1.02.95.25.4.37.87.37,1.4s-.12.98-.37,1.39c-.25.41-.59.73-1.02.96-.44.23-.93.35-1.48.35ZM96.96,418.13c.25,0,.48-.06.68-.18.2-.12.36-.28.48-.5s.18-.48.18-.77-.06-.56-.18-.78c-.12-.21-.28-.38-.48-.5s-.43-.18-.68-.18-.48.06-.68.18-.36.28-.48.5c-.12.21-.18.47-.18.78s.06.56.18.77c.12.22.28.38.48.5.2.12.43.18.68.18Z"></path><path d="M101.9,419.3l-1.89-5.24h1.43l1.57,4.51h-.68l1.64-4.51h1.29l1.59,4.51h-.68l1.62-4.51h1.34l-1.9,5.24h-1.47l-1.39-3.87h.45l-1.44,3.87h-1.46Z"></path><path d="M112.27,419.38c-.6,0-1.12-.12-1.57-.35s-.8-.55-1.05-.96c-.25-.41-.37-.87-.37-1.39s.12-.99.37-1.4c.24-.41.58-.72,1-.95.42-.23.9-.35,1.43-.35s.98.11,1.39.33.74.53.98.93c.24.41.36.89.36,1.46,0,.06,0,.12,0,.2,0,.07-.01.14-.02.21h-4.26v-.89h3.46l-.58.26c0-.27-.06-.51-.17-.71-.11-.2-.26-.36-.46-.47-.19-.11-.42-.17-.68-.17s-.49.06-.69.17-.35.27-.46.48-.17.45-.17.73v.23c0,.29.06.54.19.75.13.22.3.38.54.5s.5.17.81.17c.28,0,.52-.04.74-.13.21-.08.4-.21.58-.38l.81.88c-.24.27-.54.48-.91.63s-.78.22-1.26.22Z"></path><path d="M115.82,419.3v-5.24h1.45v1.48l-.2-.43c.16-.37.41-.65.75-.84s.76-.29,1.26-.29v1.4c-.06,0-.12-.01-.18-.01-.05,0-.11,0-.17,0-.42,0-.75.12-1.01.36-.26.24-.38.61-.38,1.11v2.47h-1.52Z"></path><path d="M122.53,419.38c-.6,0-1.12-.12-1.57-.35s-.8-.55-1.05-.96c-.25-.41-.37-.87-.37-1.39s.12-.99.37-1.4c.24-.41.58-.72,1-.95.42-.23.9-.35,1.43-.35s.98.11,1.39.33.74.53.98.93c.24.41.36.89.36,1.46,0,.06,0,.12,0,.2,0,.07-.01.14-.02.21h-4.26v-.89h3.46l-.58.26c0-.27-.06-.51-.17-.71-.11-.2-.26-.36-.46-.47-.19-.11-.42-.17-.68-.17s-.49.06-.69.17-.35.27-.46.48-.17.45-.17.73v.23c0,.29.06.54.19.75.13.22.3.38.54.5s.5.17.81.17c.28,0,.52-.04.74-.13.21-.08.4-.21.58-.38l.81.88c-.24.27-.54.48-.91.63s-.78.22-1.26.22Z"></path><path d="M128.32,419.38c-.49,0-.94-.11-1.33-.34-.4-.22-.71-.54-.94-.94-.23-.4-.35-.88-.35-1.42s.12-1.03.35-1.43c.23-.4.54-.71.94-.93.4-.22.84-.33,1.33-.33.44,0,.83.1,1.16.29.33.2.59.49.77.89.18.4.27.9.27,1.52s-.09,1.12-.26,1.51c-.18.4-.43.7-.75.89-.33.19-.72.29-1.18.29ZM128.58,418.13c.25,0,.47-.06.67-.18.2-.12.36-.28.48-.5.12-.22.18-.48.18-.77s-.06-.56-.18-.78c-.12-.21-.28-.38-.48-.5s-.43-.18-.67-.18-.48.06-.68.18-.36.28-.48.5c-.12.21-.18.47-.18.78s.06.56.18.77.28.38.48.5c.2.12.43.18.68.18ZM129.96,419.3v-1.07l.03-1.56-.1-1.55v-3.05h1.52v7.23h-1.45Z"></path><path d="M135.67,419.3v-6.82h3.33c.86,0,1.5.16,1.93.49s.65.75.65,1.28c0,.36-.09.67-.26.93-.18.26-.42.47-.72.61-.31.14-.66.21-1.05.21l.19-.4c.43,0,.81.07,1.14.21.33.14.59.35.77.62s.28.61.28,1c0,.58-.23,1.04-.69,1.37-.46.33-1.14.49-2.03.49h-3.53ZM137.24,418.11h1.84c.41,0,.72-.07.93-.2.21-.13.32-.35.32-.64s-.11-.5-.32-.64c-.21-.14-.52-.21-.93-.21h-1.96v-1.15h1.68c.38,0,.68-.07.88-.2.2-.13.31-.34.31-.61s-.1-.47-.31-.6c-.2-.13-.5-.2-.88-.2h-1.57v4.44Z"></path><path d="M143.68,421.27c-.27,0-.54-.04-.81-.13-.27-.08-.48-.2-.65-.35l.56-1.08c.12.1.25.18.4.24.15.06.3.09.45.09.21,0,.38-.05.51-.15.13-.1.24-.27.35-.5l.27-.64.12-.17,1.88-4.52h1.46l-2.37,5.56c-.17.42-.36.75-.58.99-.22.24-.46.41-.72.51-.26.1-.55.15-.87.15ZM144.57,419.5l-2.34-5.44h1.57l1.81,4.38-1.04,1.06Z"></path></g></g><g><polygon points="62.48 431.41 66.1 431.41 66.1 434.95 64.09 434.95 64.09 433.42 62.48 433.42 62.48 431.41" class="cls-4"></polygon><path d="M49.61,447.91h7.24c1.93,0,3.78-.8,5.07-2.09,1.37-1.37,2.09-3.22,2.09-5.07v-1.53h-7.08v-2.01h9.09v3.54c0,2.49-.97,4.83-2.74,6.52-1.77,1.77-4.1,2.74-6.52,2.74h-9.25v-9.25c0-2.49.97-4.83,2.74-6.52,1.77-1.77,4.1-2.74,6.52-2.74h2.98v2.01h-2.98c-1.93,0-3.78.8-5.07,2.09-1.37,1.37-2.09,3.22-2.09,5.07v1.37h7.4v2.01h-7.4v3.86Z" class="cls-2"></path><path d="M56.21,436.32v3.62h7.08v.72c0,1.69-.64,3.3-1.93,4.59-1.21,1.21-2.82,1.93-4.59,1.93h-6.44v-2.25h7.4v-3.62h-7.4v-.56c0-1.69.64-3.3,1.93-4.59,1.21-1.21,2.82-1.93,4.59-1.93h6.44v2.09h-7.08Z" class="cls-3"></path><path d="M56.21,436.32h7.08v-2.09h-6.44c-2.01,0-3.3.64-4.59,1.93-1.21,1.21-1.93,2.82-1.93,4.59v.56h7.4v3.62h-7.4v2.25h6.44c1.69,0,3.3-.64,4.59-1.93,1.21-1.21,1.93-2.82,1.93-4.59v-.72h-7.08v-3.62Z" class="cls-4"></path><path d="M73.51,433.18c.89,0,1.37.32,1.69.8l1.45-1.13c-.72-.89-1.85-1.45-3.14-1.45-1.93,0-3.22,1.13-3.22,2.41s1.61,2.09,2.9,2.41c.8.16,1.53.4,1.53.8s-.64.64-1.29.64c-.89,0-1.69-.32-2.01-.8l-1.45,1.13c.72.89,2.09,1.45,3.38,1.45,2.25,0,3.54-1.21,3.54-2.58s-1.61-2.01-2.9-2.33c-.8-.24-1.53-.4-1.53-.8s.56-.64,1.05-.64" class="cls-5"></path><path d="M81.39,437.45c-1.05,0-1.85-.97-1.85-2.01s.8-2.01,1.85-2.01,1.13.32,1.53.8l1.69-1.37c-.72-.89-1.85-1.45-3.14-1.45-2.25,0-4.1,1.85-4.1,4.1s1.85,4.1,4.1,4.1,2.41-.56,3.14-1.45l-1.69-1.37c-.32.48-.89.8-1.53.8" class="cls-5"></path><path d="M87.51,435.43c0-1.05.8-2.01,1.85-2.01s1.85.97,1.85,2.01-.8,2.01-1.85,2.01-1.85-.97-1.85-2.01M89.44,431.41c-2.25,0-4.1,1.85-4.1,4.1s1.85,4.1,4.1,4.1,4.1-1.85,4.1-4.1-1.85-4.1-4.1-4.1Z" class="cls-5"></path><path d="M96.76,435.11v-1.53h1.37c.4,0,.56.4.56.8s-.16.8-.56.8h-1.37v-.08ZM98.29,431.65h-3.86v7.64h2.33v-2.25h1.53c1.85,0,2.74-1.37,2.74-2.66s-.89-2.66-2.74-2.66v-.08Z" class="cls-5"></path><polygon points="104.09 433.58 107.71 433.58 107.71 431.65 101.83 431.65 101.83 439.3 107.71 439.3 107.71 437.37 104.09 437.37 104.09 436.4 107.31 436.4 107.31 434.55 104.09 434.55 104.09 433.58" class="cls-5"></polygon><path d="M118.97,434.71h-3.38v1.93h1.13c-.32.56-.89.89-1.53.89-1.05,0-1.85-.97-1.85-2.01s.8-2.01,1.85-2.01,1.13.32,1.53.8l1.69-1.37c-.72-.89-1.85-1.45-3.14-1.45-2.25,0-4.1,1.85-4.1,4.1s1.85,4.1,4.1,4.1,1.77-.32,2.41-.8l.24.56h1.13v-4.59l-.08-.16Z" class="cls-5"></path><polygon points="125.89 437.37 122.27 437.37 122.27 431.65 120.02 431.65 120.02 439.3 125.89 439.3 125.89 437.37" class="cls-5"></polygon><path d="M128.79,435.43c0-1.05.8-2.01,1.85-2.01s1.85.97,1.85,2.01-.8,2.01-1.85,2.01-1.85-.97-1.85-2.01M130.64,431.41c-2.25,0-4.1,1.85-4.1,4.1s1.85,4.1,4.1,4.1,4.1-1.85,4.1-4.1-1.85-4.1-4.1-4.1Z" class="cls-5"></path><path d="M137.97,434.47v-.89h1.29c.24,0,.32.24.32.48s-.08.48-.32.48h-1.29v-.08ZM137.97,437.37v-1.29h1.29c.4,0,.56.32.56.64s-.16.64-.56.64h-1.29ZM141.51,435.19c.32-.4.4-.89.4-1.29,0-1.13-.8-2.25-2.49-2.25h-3.78v7.64h3.78c1.85,0,2.74-1.21,2.74-2.41s-.24-1.21-.72-1.69h.08Z" class="cls-5"></path><path d="M145.37,435.68l.56-2.17.56,2.17h-1.13ZM146.98,437.61l.4,1.69h2.33l-2.49-7.64h-2.74l-2.49,7.64h2.33l.48-1.69h2.17Z" class="cls-5"></path><polygon points="155.83 437.37 152.21 437.37 152.21 431.65 149.88 431.65 149.88 439.3 155.83 439.3 155.83 437.37" class="cls-5"></polygon><path d="M73.35,443.72c.89,0,1.29.32,1.61.8l1.37-1.13c-.72-.89-1.77-1.45-2.98-1.45-1.85,0-3.14,1.13-3.14,2.33s1.53,2.01,2.82,2.33c.8.16,1.45.4,1.45.8s-.56.64-1.21.64c-.89,0-1.61-.32-1.93-.8l-1.37,1.13c.72.89,2.01,1.45,3.22,1.45,2.17,0,3.38-1.21,3.38-2.49s-1.53-1.93-2.74-2.25c-.8-.24-1.45-.4-1.45-.8s.56-.64.97-.64" class="cls-5"></path><polygon points="81.8 449.68 84.29 449.68 81.31 445.33 83.97 442.27 81.47 442.27 79.54 444.45 79.54 442.27 77.29 442.27 77.29 449.68 79.54 449.68 79.54 447.26 79.95 446.78 81.8 449.68" class="cls-5"></polygon><rect height="7.4" width="2.25" y="442.27" x="84.13" class="cls-5"></rect><polygon points="93.14 447.83 89.68 447.83 89.68 442.27 87.43 442.27 87.43 449.68 93.14 449.68 93.14 447.83" class="cls-5"></polygon><polygon points="99.66 447.83 96.2 447.83 96.2 442.27 93.95 442.27 93.95 449.68 99.66 449.68 99.66 447.83" class="cls-5"></polygon><path d="M103.2,443.72c.89,0,1.29.32,1.61.8l1.37-1.13c-.72-.89-1.77-1.45-2.98-1.45-1.85,0-3.14,1.13-3.14,2.33s1.53,2.01,2.82,2.33c.8.16,1.45.4,1.45.8s-.56.64-1.21.64c-.89,0-1.61-.32-1.93-.8l-1.37,1.13c.72.89,2.01,1.45,3.22,1.45,2.17,0,3.38-1.21,3.38-2.49s-1.53-1.93-2.74-2.25c-.8-.24-1.45-.4-1.45-.8s.56-.64.97-.64" class="cls-5"></path><path d="M116.8,446.38v-4.02h-2.25v4.02c0,1.05-.48,1.61-1.29,1.61s-1.29-.56-1.29-1.61v-4.02h-2.25v4.02c0,2.17.89,3.54,3.46,3.54s3.54-1.37,3.54-3.54" class="cls-5"></path><polygon points="124.53 442.27 122.35 442.27 122.35 445.98 120.1 442.27 117.93 442.27 117.93 449.68 120.1 449.68 120.1 445.98 122.35 449.68 124.53 449.68 124.53 442.27" class="cls-5"></polygon><rect height="7.4" width="2.25" y="442.27" x="125.65" class="cls-5"></rect><polygon points="130.24 442.27 127.99 442.27 130.4 449.68 133.06 449.68 135.39 442.27 133.22 442.27 131.69 447.91 130.24 442.27" class="cls-5"></polygon><polygon points="137.72 444.13 141.18 444.13 141.18 442.27 135.55 442.27 135.55 449.68 141.18 449.68 141.18 447.83 137.72 447.83 137.72 446.86 140.86 446.86 140.86 445.09 137.72 445.09 137.72 444.13" class="cls-5"></polygon><path d="M144.24,445.25v-1.13h1.29c.32,0,.56.24.56.56s-.16.56-.56.56h-1.29ZM144.73,447.1l1.77,2.58h2.41l-2.01-2.82c.97-.4,1.53-1.29,1.53-2.17s-.89-2.41-2.66-2.41h-3.7v7.4h2.25v-2.58h.48-.08Z" class="cls-5"></path><path d="M152.05,443.72c.89,0,1.29.32,1.61.8l1.37-1.13c-.72-.89-1.77-1.45-2.98-1.45-1.85,0-3.14,1.13-3.14,2.33s1.53,2.01,2.82,2.33c.8.16,1.45.4,1.45.8s-.56.64-1.21.64c-.89,0-1.61-.32-1.93-.8l-1.37,1.13c.72.89,2.01,1.45,3.22,1.45,2.17,0,3.38-1.21,3.38-2.49s-1.53-1.93-2.74-2.25c-.8-.24-1.45-.4-1.45-.8s.56-.64.97-.64" class="cls-5"></path><rect height="7.4" width="2.25" y="442.27" x="155.99" class="cls-5"></rect><polygon points="164.68 444.13 164.68 442.27 158.65 442.27 158.65 444.13 160.58 444.13 160.58 449.68 162.75 449.68 162.75 444.13 164.68 444.13" class="cls-5"></polygon><polygon points="170.64 442.27 168.46 442.27 167.18 444.69 165.81 442.27 163.56 442.27 166.05 446.38 166.05 449.68 168.22 449.68 168.22 446.38 170.64 442.27" class="cls-5"></polygon></g><g><rect height="27.52" width="89.48" y="3.22" x="64.7" class="cls-7"></rect><g><path d="M120.14,9.25c-.8,0-1.21.64-1.21,1.93v10.62c0,.48.08.89.32,1.21.16.32.48.48.89.48s.72-.16.89-.48c.16-.32.32-.72.32-1.21v-10.62c0-1.29-.4-1.93-1.21-1.93Z" class="cls-36"></path><path d="M73.39,9.09c-.89,0-1.29.8-1.29,2.33v2.82h2.41v-2.82c0-1.53-.4-2.33-1.13-2.33Z" class="cls-36"></path><path d="M144.93,9.09c-.89,0-1.29.8-1.29,2.33v2.82h2.41v-2.82c0-1.53-.4-2.33-1.13-2.33Z" class="cls-36"></path><path d="M154.26,0H63.89c-1.77,0-3.14,1.37-3.14,3.14v26.39c0,1.77,1.37,3.14,3.14,3.14h90.37c1.77,0,3.14-1.37,3.14-3.14V3.14c0-1.77-1.37-3.14-3.14-3.14h0ZM79.66,12.96v3.86h-7.48v4.18c0,.72,0,1.37.24,1.77.16.4.48.64.97.64s.64-.08.8-.32c.16-.24.24-.48.32-.8v-3.46h5.15v1.21c0,2.49-.48,4.35-1.45,5.55-.97,1.21-2.66,1.77-5.07,1.77s-3.86-.64-4.83-1.85-1.45-3.06-1.45-5.47v-8.69c0-2.01.56-3.54,1.69-4.59s2.74-1.53,4.83-1.53c4.18,0,6.28,2.01,6.28,6.12v1.61ZM88.84,19.8h-7.48v-3.38h7.48v3.38ZM101.47,25.75c-1.13,1.05-2.74,1.61-4.83,1.61-4.26,0-6.44-2.17-6.44-6.52v-1.69h5.23v2.58c0,.48.16.89.32,1.21.16.24.48.4.97.4.72,0,1.05-.56,1.05-1.69s-.16-1.45-.48-1.93-.8-.97-1.53-1.53l-2.74-2.09c-.97-.72-1.61-1.45-2.01-2.25s-.64-1.85-.64-3.3.32-2.01.89-2.82,1.37-1.37,2.33-1.77c.97-.4,2.01-.56,3.22-.56,4.18,0,6.28,2.09,6.28,6.28v.4h-5.39v-.8c0-.48-.08-.97-.24-1.29-.16-.4-.48-.56-.8-.56s-.64.08-.8.32c-.16.24-.24.48-.24.8,0,.8.32,1.37.89,1.85l3.22,2.33c1.13.89,2.01,1.77,2.66,2.74.64.97.89,2.25.89,3.78s-.56,3.54-1.69,4.67l-.08-.16ZM112.17,12.55h-1.45v10.54c0,.32,0,.56.08.72,0,.16.24.24.48.24h.89v3.06c-.32,0-.72.16-1.29.24-.56,0-1.13.08-1.61.08-1.37,0-2.33-.24-2.82-.72-.48-.48-.8-1.29-.8-2.41v-11.67h-1.45v-3.38h1.45v-3.94h4.99v3.94h1.45v3.38l.08-.08ZM126.58,20.68c0,4.51-2.17,6.68-6.44,6.68s-6.44-2.25-6.44-6.68v-8.69c0-2.01.56-3.7,1.69-4.91s2.74-1.85,4.75-1.85,3.62.64,4.75,1.85,1.69,2.82,1.69,4.91v8.69ZM137.44,9.58c-.72,0-1.53.08-2.41.32s-1.29.48-1.29.72v16.58h-5.15V5.47h5.15v2.41c.24-.89.72-1.53,1.37-1.93.64-.48,1.45-.72,2.41-.72v4.35h-.08ZM151.2,12.96v3.86h-7.48v4.18c0,.72,0,1.37.24,1.77.16.4.48.64.97.64s.64-.08.8-.32c.16-.24.24-.48.32-.8v-3.46h5.15v1.21c0,2.49-.48,4.35-1.45,5.55s-2.66,1.77-5.07,1.77-3.86-.64-4.83-1.85c-.97-1.21-1.45-3.06-1.45-5.47v-8.69c0-2.01.56-3.54,1.69-4.59,1.13-1.05,2.74-1.53,4.83-1.53,4.18,0,6.28,2.01,6.28,6.12v1.61Z" class="cls-36"></path></g><g><path d="M70.89,37.58c0,.56-.48.97-1.37.97h-1.69v-3.46h1.61c.8,0,1.29.32,1.29.89s-.16.64-.4.72c.4.08.64.4.64.89h-.08ZM68.48,35.57v.97h.89c.4,0,.72-.16.72-.48s-.24-.48-.72-.48h-.89ZM70.25,37.58c0-.32-.24-.48-.72-.48h-1.05v.97h1.05c.48,0,.72-.16.72-.48Z" class="cls-13"></path><path d="M73.95,35.89l-1.21,2.82c-.24.56-.56.8-1.05.8s-.56-.08-.72-.24l.24-.48c.08.08.32.16.48.16s.32-.08.48-.4h0c0-.08-1.13-2.74-1.13-2.74h.64l.8,1.93.8-1.93h.56l.08.08Z" class="cls-13"></path><path d="M75.48,38.14l.24-.48c.24.24.72.4,1.13.4s.72-.16.72-.48c0-.72-2.01-.24-2.01-1.53s.4-1.05,1.37-1.05.8.08,1.13.32l-.16.48c-.32-.16-.64-.24-.97-.24-.56,0-.72.24-.72.48,0,.72,2.01.24,2.01,1.53s-.48,1.05-1.37,1.05-1.05-.16-1.37-.4v-.08Z" class="cls-13"></path><path d="M81.19,37.42h-2.01c0,.4.4.64.89.64s.56-.08.72-.32l.32.4c-.24.24-.56.4-1.05.4-.89,0-1.45-.56-1.45-1.37s.56-1.37,1.37-1.37,1.29.56,1.29,1.37,0,.16,0,.16l-.08.08ZM79.18,37.02h1.45c0-.4-.32-.64-.72-.64s-.72.24-.72.64Z" class="cls-13"></path><path d="M84.41,37.02v1.53h-.64v-1.45c0-.48-.24-.72-.64-.72s-.72.24-.72.8v1.29h-.64v-2.58h.56v.32c.16-.24.48-.4.89-.4.64,0,1.13.32,1.13,1.13l.08.08Z" class="cls-13"></path><path d="M86.66,35.89v.56h-.16c-.48,0-.72.24-.72.8v1.29h-.64v-2.58h.56v.4c.16-.24.48-.4.97-.4v-.08Z" class="cls-13"></path><path d="M89.72,35.89l-1.21,2.82c-.24.56-.56.8-1.05.8s-.56-.08-.72-.24l.24-.48c.08.08.32.16.48.16s.32-.08.48-.4h0c0-.08-1.13-2.74-1.13-2.74h.64l.8,1.93.8-1.93h.56l.08.08Z" class="cls-13"></path><path d="M89.8,38.3l.24-.48c.24.16.56.24.89.24s.56-.08.56-.32c0-.48-1.61,0-1.61-1.05s.48-.8,1.13-.8.72.08.97.24l-.24.48c-.24-.16-.48-.16-.72-.16-.4,0-.56.16-.56.32,0,.56,1.61,0,1.61,1.05s-.48.8-1.21.8-.89-.16-1.13-.32h.08Z" class="cls-13"></path><path d="M94.79,37.02v1.53h-.56v-.32c-.16.24-.4.32-.8.32-.56,0-.97-.32-.97-.8s.32-.8,1.13-.8h.64c0-.4-.24-.64-.64-.64s-.56.08-.8.24l-.24-.48c.24-.24.72-.32,1.13-.32.72,0,1.21.32,1.21,1.13l-.08.16ZM94.23,37.74v-.32h-.64c-.4,0-.56.16-.56.32s.16.32.48.32.56-.16.64-.4l.08.08Z" class="cls-13"></path><path d="M97.69,35.65h-1.13v-.56h2.9v.56h-1.13v2.9h-.64v-2.9h0Z" class="cls-13"></path><path d="M102.03,37.42h-2.01c0,.4.4.64.89.64s.56-.08.72-.32l.32.4c-.24.24-.56.4-1.05.4-.89,0-1.45-.56-1.45-1.37s.56-1.37,1.37-1.37,1.29.56,1.29,1.37,0,.16,0,.16l-.08.08ZM100.02,37.02h1.45c0-.4-.32-.64-.72-.64s-.72.24-.72.64Z" class="cls-13"></path><path d="M102.44,37.26c0-.8.56-1.37,1.45-1.37s.89.24,1.13.64l-.48.24c-.16-.24-.4-.4-.64-.4-.48,0-.8.32-.8.8s.32.8.8.8.48-.08.64-.4l.48.24c-.16.4-.64.64-1.13.64-.8,0-1.45-.56-1.45-1.37v.16Z" class="cls-13"></path><path d="M108.07,37.02v1.53h-.64v-1.45c0-.48-.24-.72-.64-.72s-.72.24-.72.8v1.29h-.64v-3.62h.64v1.29c.16-.24.48-.32.89-.32.64,0,1.13.32,1.13,1.13v.08Z" class="cls-13"></path><path d="M111.37,37.02v1.53h-.64v-1.45c0-.48-.24-.72-.64-.72s-.72.24-.72.8v1.29h-.64v-2.58h.56v.32c.16-.24.48-.4.89-.4.64,0,1.13.32,1.13,1.13l.08.08Z" class="cls-13"></path><path d="M112.01,37.26c0-.8.56-1.37,1.37-1.37s1.37.56,1.37,1.37-.56,1.37-1.37,1.37-1.37-.56-1.37-1.37ZM114.19,37.26c0-.48-.32-.8-.8-.8s-.8.32-.8.8.32.8.8.8.8-.32.8-.8Z" class="cls-13"></path><path d="M115.31,34.92h.64v3.62h-.64v-3.62Z" class="cls-13"></path><path d="M116.52,37.26c0-.8.56-1.37,1.37-1.37s1.37.56,1.37,1.37-.56,1.37-1.37,1.37-1.37-.56-1.37-1.37ZM118.69,37.26c0-.48-.32-.8-.8-.8s-.8.32-.8.8.32.8.8.8.8-.32.8-.8Z" class="cls-13"></path><path d="M122.47,35.89v2.25c0,.97-.48,1.37-1.45,1.37s-.97-.16-1.29-.4l.24-.48c.24.16.56.32.97.32.56,0,.8-.24.8-.8v-.16c-.24.24-.56.32-.89.32-.72,0-1.29-.48-1.29-1.29s.56-1.29,1.29-1.29.72.08.89.4v-.32h.56l.16.08ZM121.91,37.18c0-.4-.32-.72-.8-.72s-.8.32-.8.72.32.72.8.72.8-.32.8-.72Z" class="cls-13"></path><path d="M123.2,35.09c0-.24.16-.4.4-.4s.4.16.4.32-.16.4-.4.4-.4-.16-.4-.4v.08ZM123.28,35.89h.64v2.58h-.64v-2.58Z" class="cls-13"></path><path d="M127.14,37.42h-2.01c0,.4.4.64.89.64s.56-.08.72-.32l.32.4c-.24.24-.56.4-1.05.4-.89,0-1.45-.56-1.45-1.37s.56-1.37,1.37-1.37,1.29.56,1.29,1.37,0,.16,0,.16l-.08.08ZM125.13,37.02h1.45c0-.4-.32-.64-.72-.64s-.72.24-.72.64Z" class="cls-13"></path><path d="M127.46,38.3l.24-.48c.24.16.56.24.89.24s.56-.08.56-.32c0-.48-1.61,0-1.61-1.05s.48-.8,1.13-.8.72.08.97.24l-.24.48c-.24-.16-.48-.16-.72-.16-.4,0-.56.16-.56.32,0,.56,1.61,0,1.61,1.05s-.48.8-1.21.8-.89-.16-1.13-.32h.08Z" class="cls-13"></path><path d="M131.73,35.09h.64v2.9h1.77v.56h-2.41v-3.46Z" class="cls-13"></path><path d="M134.47,35.09c0-.24.16-.4.4-.4s.4.16.4.32-.16.4-.4.4-.4-.16-.4-.4v.08ZM134.55,35.89h.64v2.58h-.64v-2.58Z" class="cls-13"></path><path d="M140.34,37.02v1.53h-.64v-1.45c0-.48-.24-.72-.56-.72s-.64.24-.64.8v1.29h-.64v-1.45c0-.48-.24-.72-.56-.72s-.64.24-.64.8v1.29h-.64v-2.58h.56v.32c.16-.24.48-.4.89-.4s.72.16.89.4c.24-.24.56-.4.97-.4.64,0,1.05.32,1.05,1.13v.16Z" class="cls-13"></path><path d="M141.06,35.09c0-.24.16-.4.4-.4s.4.16.4.32-.16.4-.4.4-.4-.16-.4-.4v.08ZM141.14,35.89h.64v2.58h-.64v-2.58Z" class="cls-13"></path><path d="M144.12,38.39c-.16.08-.4.16-.56.16-.56,0-.89-.32-.89-.89v-1.29h-.4v-.48h.4v-.56h.64v.56h.72v.48h-.72v1.21c0,.24.16.4.32.4s.24,0,.32-.08l.16.4v.08Z" class="cls-13"></path><path d="M146.94,37.42h-2.01c0,.4.4.64.89.64s.56-.08.72-.32l.32.4c-.24.24-.56.4-1.05.4-.89,0-1.45-.56-1.45-1.37s.56-1.37,1.37-1.37,1.29.56,1.29,1.37,0,.16,0,.16l-.08.08ZM144.93,37.02h1.45c0-.4-.32-.64-.72-.64s-.72.24-.72.64h0Z" class="cls-13"></path><path d="M150.16,34.92v3.62h-.56v-.32c-.24.24-.48.4-.89.4-.72,0-1.29-.56-1.29-1.37s.56-1.37,1.29-1.37.64.08.8.32v-1.37h.64v.08ZM149.51,37.26c0-.48-.32-.8-.8-.8s-.8.32-.8.8.32.8.8.8.8-.32.8-.8Z" class="cls-13"></path></g></g><g><path d="M125.53,392.49c-1.95,0-3.58-.66-4.89-1.97-1.3-1.31-1.95-2.95-1.95-4.91s.65-3.59,1.95-4.89c1.3-1.32,2.93-1.99,4.89-1.99s3.6.72,4.84,2.15l-1.21,1.18c-.94-1.14-2.15-1.71-3.62-1.71s-2.68.49-3.66,1.47c-.97.97-1.45,2.23-1.45,3.79s.48,2.82,1.45,3.79c.98.98,2.2,1.47,3.66,1.47,1.53,0,2.86-.64,3.99-1.93l1.23,1.2c-.62.75-1.39,1.33-2.3,1.74s-1.88.62-2.92.62ZM133.81,379.03v13.16h-1.69v-13.16h1.69ZM135.27,387.69c0-1.38.43-2.53,1.31-3.44.88-.91,1.99-1.36,3.33-1.36s2.44.45,3.31,1.36c.88.91,1.32,2.05,1.32,3.44s-.44,2.54-1.32,3.44c-.87.91-1.97,1.36-3.31,1.36s-2.45-.45-3.33-1.36c-.87-.91-1.31-2.05-1.31-3.44ZM136.96,387.69c0,.97.28,1.75.85,2.35.56.6,1.26.9,2.1.9s1.53-.3,2.1-.9c.56-.6.85-1.38.85-2.35s-.28-1.73-.85-2.34c-.58-.61-1.27-.92-2.1-.92s-1.52.31-2.1.92c-.56.6-.85,1.38-.85,2.34ZM153.89,392.19h-1.62v-1.25h-.07c-.26.44-.65.81-1.19,1.1-.53.29-1.09.44-1.66.44-1.1,0-1.95-.32-2.55-.95-.59-.63-.89-1.53-.89-2.69v-5.66h1.69v5.55c.04,1.47.78,2.21,2.22,2.21.67,0,1.24-.27,1.69-.82.45-.54.68-1.2.68-1.96v-4.98h1.69v9.01ZM159.61,392.49c-1.18,0-2.19-.47-3.03-1.4-.83-.94-1.25-2.08-1.25-3.4s.42-2.46,1.25-3.4c.85-.93,1.86-1.4,3.03-1.4.66,0,1.27.14,1.81.42.55.28.97.66,1.26,1.12h.07l-.07-1.25v-4.16h1.69v13.16h-1.62v-1.25h-.07c-.29.47-.71.84-1.26,1.12s-1.15.42-1.81.42ZM159.89,390.94c.83,0,1.51-.3,2.04-.9.55-.6.83-1.38.83-2.35s-.28-1.72-.83-2.34c-.54-.61-1.22-.92-2.04-.92s-1.49.31-2.04.92c-.55.61-.83,1.39-.83,2.34s.28,1.73.83,2.34c.55.61,1.23.92,2.04.92Z" class="cls-17"></path><g data-name="75x24px" id="_75x24px"><path d="M61.36,392.48c-4.12,0-7.58-3.34-7.58-7.44s3.46-7.44,7.58-7.44c2.28,0,3.9.89,5.12,2.05l-1.44,1.43c-.88-.82-2.06-1.45-3.68-1.45-3.01,0-5.36,2.41-5.36,5.41s2.35,5.41,5.36,5.41c1.95,0,3.06-.78,3.77-1.49.58-.58.97-1.42,1.11-2.56h-4.89v-2.03h6.87c.07.36.11.8.11,1.27,0,1.52-.42,3.41-1.77,4.76-1.31,1.36-2.99,2.09-5.22,2.09Z" class="cls-11"></path><path d="M78.98,387.69c0,2.76-2.13,4.79-4.74,4.79s-4.74-2.03-4.74-4.79,2.13-4.79,4.74-4.79,4.74,2.01,4.74,4.79ZM76.9,387.69c0-1.72-1.24-2.9-2.67-2.9s-2.67,1.18-2.67,2.9,1.24,2.9,2.67,2.9,2.67-1.2,2.67-2.9Z" class="cls-26"></path><path d="M89.61,387.69c0,2.76-2.13,4.79-4.74,4.79s-4.74-2.03-4.74-4.79,2.13-4.79,4.74-4.79,4.74,2.01,4.74,4.79ZM87.53,387.69c0-1.72-1.24-2.9-2.67-2.9s-2.67,1.18-2.67,2.9,1.24,2.9,2.67,2.9,2.67-1.2,2.67-2.9Z" class="cls-23"></path><path d="M99.98,383.19v8.6c0,3.54-2.1,4.99-4.58,4.99-2.33,0-3.74-1.56-4.27-2.83l1.84-.76c.33.78,1.13,1.71,2.43,1.71,1.59,0,2.57-.98,2.57-2.81v-.69h-.07c-.47.58-1.39,1.09-2.53,1.09-2.41,0-4.61-2.09-4.61-4.77s2.21-4.81,4.61-4.81c1.15,0,2.06.51,2.53,1.07h.07v-.78h2.01ZM98.12,387.71c0-1.69-1.13-2.92-2.57-2.92s-2.68,1.23-2.68,2.92,1.22,2.89,2.68,2.89,2.57-1.22,2.57-2.89Z" class="cls-11"></path><path d="M103.69,378.11v14.09h-2.11v-14.09h2.11Z" class="cls-25"></path><path d="M112,389.27l1.64,1.09c-.53.78-1.8,2.12-4.01,2.12-2.73,0-4.71-2.11-4.71-4.79,0-2.85,1.99-4.79,4.47-4.79s3.72,1.98,4.12,3.05l.22.54-6.44,2.65c.49.96,1.26,1.45,2.33,1.45s1.82-.53,2.37-1.32ZM106.95,387.55l4.3-1.78c-.24-.6-.95-1.02-1.79-1.02-1.08,0-2.57.94-2.52,2.8Z" class="cls-26"></path></g></g><g><path d="M60.77,302.9v-6.38h1.55v6.38h-1.55Z"></path><path d="M66.94,297.93c.41,0,.77.08,1.1.23.32.16.58.39.76.71.19.32.28.73.28,1.23v2.81h-1.49v-2.59c0-.39-.09-.69-.27-.87-.18-.19-.44-.28-.77-.28-.24,0-.45.05-.64.14-.19.09-.34.24-.44.43s-.16.44-.16.75v2.42h-1.5v-4.9h1.43v1.36l-.27-.41c.19-.33.45-.58.8-.76s.74-.26,1.18-.26Z"></path><path d="M72.36,302.9l2.99-6.38h1.53l3,6.38h-1.63l-2.45-5.63h.61l-2.46,5.63h-1.59ZM73.86,301.53l.41-1.12h3.45l.42,1.12h-4.28Z"></path><path d="M82.16,302.97c-.44,0-.86-.05-1.27-.15-.41-.1-.73-.23-.96-.38l.5-1.02c.24.14.52.25.84.34.32.09.64.13.95.13.35,0,.59-.04.73-.12.14-.08.22-.19.22-.33,0-.11-.06-.2-.17-.26s-.26-.1-.45-.13-.39-.06-.61-.09c-.22-.03-.44-.07-.67-.12s-.43-.13-.61-.23c-.19-.1-.33-.24-.45-.42-.11-.18-.17-.4-.17-.68,0-.31.09-.58.28-.82s.46-.42.82-.56c.36-.14.79-.21,1.28-.21.35,0,.71.04,1.07.11s.67.18.91.32l-.5,1.01c-.25-.14-.5-.24-.75-.29-.25-.05-.5-.08-.73-.08-.33,0-.57.04-.73.13-.15.08-.23.19-.23.33,0,.12.06.21.17.27.11.06.26.11.45.15.19.04.39.07.61.1.22.03.44.07.67.12.22.05.43.13.61.23.18.1.33.24.45.41.11.17.17.4.17.68,0,.3-.1.57-.29.81-.19.23-.47.42-.83.55-.36.13-.8.2-1.32.2Z"></path><path d="M87.25,302.97c-.44,0-.86-.05-1.27-.15-.41-.1-.73-.23-.96-.38l.5-1.02c.24.14.52.25.84.34.32.09.64.13.95.13.35,0,.59-.04.73-.12.14-.08.22-.19.22-.33,0-.11-.06-.2-.17-.26s-.26-.1-.45-.13-.39-.06-.61-.09c-.22-.03-.44-.07-.67-.12s-.43-.13-.61-.23c-.19-.1-.33-.24-.45-.42-.11-.18-.17-.4-.17-.68,0-.31.09-.58.28-.82s.46-.42.82-.56c.36-.14.79-.21,1.28-.21.35,0,.71.04,1.07.11s.67.18.91.32l-.5,1.01c-.25-.14-.5-.24-.75-.29-.25-.05-.5-.08-.73-.08-.33,0-.57.04-.73.13-.15.08-.23.19-.23.33,0,.12.06.21.17.27.11.06.26.11.45.15.19.04.39.07.61.1.22.03.44.07.67.12.22.05.43.13.61.23.18.1.33.24.45.41.11.17.17.4.17.68,0,.3-.1.57-.29.81-.19.23-.47.42-.83.55-.36.13-.8.2-1.32.2Z"></path><path d="M93.06,302.97c-.55,0-1.04-.11-1.46-.33-.43-.22-.76-.52-1.01-.9-.25-.38-.37-.81-.37-1.3s.12-.93.37-1.31c.25-.38.58-.68,1.01-.89.42-.22.91-.32,1.46-.32s1.03.11,1.46.32c.43.22.76.51,1.01.89.24.38.36.81.36,1.31s-.12.92-.36,1.3-.58.68-1.01.9c-.43.22-.91.33-1.46.33ZM93.06,301.81c.25,0,.47-.05.67-.16.2-.11.35-.27.47-.47.11-.2.17-.44.17-.72s-.06-.53-.17-.73c-.11-.2-.27-.36-.47-.47-.2-.11-.42-.16-.67-.16s-.47.05-.67.16c-.2.11-.36.26-.47.47-.12.2-.18.44-.18.73s.06.52.18.72c.12.2.28.36.47.47.2.11.42.16.67.16Z"></path><path d="M99.37,302.97c-.56,0-1.05-.11-1.48-.32-.43-.22-.78-.52-1.02-.9-.25-.38-.37-.82-.37-1.3s.12-.93.37-1.31c.25-.38.59-.68,1.02-.89.43-.22.93-.32,1.48-.32s1.02.11,1.42.32.7.52.89.93l-1.16.59c-.13-.23-.3-.4-.5-.51-.2-.11-.42-.16-.66-.16-.26,0-.49.05-.69.16-.2.11-.37.26-.48.47-.12.2-.18.44-.18.73s.06.53.18.73c.12.2.28.35.48.46.2.11.43.16.69.16.24,0,.46-.05.66-.16.2-.11.37-.28.5-.52l1.16.6c-.19.39-.49.7-.89.92s-.88.32-1.42.32Z"></path><path d="M103.25,297.31c-.27,0-.5-.08-.67-.23-.17-.15-.26-.34-.26-.57s.09-.41.26-.57c.17-.15.4-.23.67-.23s.5.07.67.21c.17.14.26.33.26.55,0,.24-.08.43-.25.59-.17.16-.39.23-.68.23ZM102.51,302.9v-4.9h1.5v4.9h-1.5Z"></path><path d="M106.98,302.97c-.4,0-.75-.07-1.04-.2-.29-.13-.51-.31-.66-.53-.15-.22-.23-.48-.23-.76s.07-.55.22-.77c.15-.22.39-.39.71-.51.33-.12.75-.19,1.27-.19h1.37v.83h-1.21c-.35,0-.59.06-.72.16-.13.11-.2.25-.2.41,0,.18.07.33.23.43.15.11.36.16.62.16.25,0,.47-.06.67-.17.2-.11.34-.28.43-.5l.23.66c-.11.32-.31.56-.59.72-.29.16-.66.25-1.11.25ZM108.55,302.9v-.96l-.1-.21v-1.71c0-.3-.1-.54-.29-.71-.19-.17-.49-.25-.9-.25-.28,0-.54.04-.81.12-.27.08-.49.19-.68.33l-.54-.99c.28-.19.62-.33,1.02-.44s.8-.16,1.21-.16c.79,0,1.4.18,1.83.53.43.35.65.9.65,1.65v2.8h-1.4Z"></path><path d="M110.69,299.2v-1.09h3.57v1.09h-3.57ZM113.41,302.97c-.61,0-1.08-.15-1.42-.44-.34-.3-.51-.73-.51-1.32v-4.3h1.49v4.28c0,.21.06.37.17.48.12.11.27.17.47.17.24,0,.44-.06.6-.18l.4,1c-.15.1-.34.18-.55.23-.21.05-.44.08-.67.08Z"></path><path d="M116.22,297.31c-.27,0-.5-.08-.67-.23-.17-.15-.26-.34-.26-.57s.09-.41.26-.57c.17-.15.4-.23.67-.23s.5.07.67.21c.17.14.26.33.26.55,0,.24-.08.43-.25.59-.17.16-.39.23-.68.23ZM115.47,302.9v-4.9h1.5v4.9h-1.5Z"></path><path d="M120.81,302.97c-.55,0-1.04-.11-1.46-.33-.43-.22-.76-.52-1.01-.9-.25-.38-.37-.81-.37-1.3s.12-.93.37-1.31c.25-.38.58-.68,1.01-.89.42-.22.91-.32,1.46-.32s1.03.11,1.46.32c.43.22.76.51,1.01.89.24.38.36.81.36,1.31s-.12.92-.36,1.3-.58.68-1.01.9c-.43.22-.91.33-1.46.33ZM120.81,301.81c.25,0,.47-.05.67-.16.2-.11.35-.27.47-.47.11-.2.17-.44.17-.72s-.06-.53-.17-.73c-.11-.2-.27-.36-.47-.47-.2-.11-.42-.16-.67-.16s-.47.05-.67.16c-.2.11-.36.26-.47.47-.12.2-.18.44-.18.73s.06.52.18.72c.12.2.28.36.47.47.2.11.42.16.67.16Z"></path><path d="M127.77,297.93c.41,0,.77.08,1.1.23.32.16.58.39.76.71.19.32.28.73.28,1.23v2.81h-1.49v-2.59c0-.39-.09-.69-.27-.87-.18-.19-.44-.28-.77-.28-.24,0-.45.05-.64.14-.19.09-.34.24-.44.43s-.16.44-.16.75v2.42h-1.5v-4.9h1.43v1.36l-.27-.41c.19-.33.45-.58.8-.76s.74-.26,1.18-.26Z"></path><path d="M135.68,302.9l-2.19-6.38h1.61l1.91,5.65h-.81l1.99-5.65h1.44l1.92,5.65h-.78l1.95-5.65h1.49l-2.19,6.38h-1.67l-1.7-4.96h.44l-1.74,4.96h-1.67Z"></path><path d="M145.81,297.31c-.27,0-.5-.08-.67-.23-.17-.15-.26-.34-.26-.57s.09-.41.26-.57c.17-.15.4-.23.67-.23s.5.07.67.21c.17.14.26.33.26.55,0,.24-.08.43-.25.59-.17.16-.39.23-.68.23ZM145.06,302.9v-4.9h1.5v4.9h-1.5Z"></path><path d="M147.34,299.2v-1.09h3.57v1.09h-3.57ZM150.06,302.97c-.61,0-1.08-.15-1.42-.44-.34-.3-.51-.73-.51-1.32v-4.3h1.49v4.28c0,.21.06.37.17.48.12.11.27.17.47.17.24,0,.44-.06.6-.18l.4,1c-.15.1-.34.18-.55.23-.21.05-.44.08-.67.08Z"></path><path d="M155.25,297.93c.41,0,.77.08,1.1.23.32.16.58.39.76.71.19.32.28.73.28,1.23v2.81h-1.49v-2.59c0-.39-.09-.69-.27-.87-.18-.19-.44-.28-.77-.28-.24,0-.45.05-.64.14-.19.09-.34.24-.44.43s-.16.44-.16.75v2.42h-1.5v-6.76h1.5v3.22l-.34-.41c.19-.33.45-.58.8-.76s.74-.26,1.18-.26Z"></path></g><g><polygon points="119.41 258.91 126.59 256.24 119.41 253.43 119.41 249.72 131.7 254.67 131.7 257.75 119.41 262.73 119.41 258.91" class="cls-14"></polygon><path d="M51.45,282.59c-2.59,0-4.73-1.32-4.73-4.24v-.16c0-3.55,3.08-4.7,6.79-4.7h1.79v-.69c0-1.43-.63-2.31-2.12-2.31-1.35,0-2.06.77-2.17,1.87h-3.85c.27-3.19,2.81-4.76,6.22-4.76s5.94,1.49,5.94,5.06v9.63h-3.93v-1.65c-.69,1.05-2.01,1.95-3.93,1.95ZM55.3,277.5v-1.37h-1.6c-1.98,0-3,.55-3,1.84v.14c0,.99.61,1.68,1.95,1.68s2.64-.77,2.64-2.28ZM68.43,282.59c-3.99,0-6.88-2.48-6.88-7.34v-.19c0-4.87,3.08-7.46,6.9-7.46,3.27,0,5.97,1.65,6.3,5.42h-3.85c-.25-1.4-.96-2.31-2.37-2.31-1.71,0-2.89,1.35-2.89,4.18v.44c0,2.92,1.04,4.24,2.92,4.24,1.38,0,2.39-1.02,2.61-2.59h3.66c-.28,3.27-2.5,5.61-6.41,5.61ZM83.39,282.59c-3.99,0-6.88-2.48-6.88-7.34v-.19c0-4.87,3.08-7.46,6.9-7.46,3.27,0,5.97,1.65,6.3,5.42h-3.85c-.25-1.4-.96-2.31-2.37-2.31-1.71,0-2.89,1.35-2.89,4.18v.44c0,2.92,1.04,4.24,2.92,4.24,1.38,0,2.39-1.02,2.61-2.59h3.66c-.28,3.27-2.5,5.61-6.41,5.61ZM98.47,282.59c-4.15,0-6.99-2.48-6.99-7.26v-.28c0-4.81,3-7.46,6.85-7.46,3.58,0,6.58,2.01,6.58,6.77v1.73h-9.35c.16,2.59,1.27,3.58,3,3.58,1.54,0,2.37-.82,2.64-1.87h3.71c-.44,2.72-2.67,4.79-6.44,4.79ZM95.61,273.43h5.39c-.08-2.12-1.05-3.03-2.64-3.03-1.27,0-2.42.69-2.75,3.03ZM107.38,267.9h4.02v2.15c.72-1.35,2.15-2.45,4.35-2.45,2.61,0,4.35,1.57,4.35,5.06v9.63h-4.02v-9.02c0-1.68-.69-2.42-2.15-2.42s-2.53.85-2.53,2.67v8.78h-4.02v-14.39ZM127.61,263.56v4.35h2.75v3h-2.75v6.82c0,1.07.49,1.57,1.43,1.57.58,0,1.02-.08,1.4-.25v3.14c-.47.14-1.27.3-2.26.3-3.14,0-4.62-1.43-4.62-4.35v-7.24h-1.68v-3h1.68v-2.7l4.04-1.65ZM145.49,282.29h-4.02v-2.12c-.69,1.38-2.04,2.42-4.18,2.42-2.59,0-4.48-1.57-4.48-4.95v-9.74h4.04v9.13c0,1.65.66,2.42,2.09,2.42s2.53-.88,2.53-2.67v-8.89h4.02v14.39ZM148.41,267.9h4.02v2.64c.85-1.93,2.2-2.83,4.32-2.83v3.96c-2.72,0-4.32.83-4.32,3.22v7.4h-4.02v-14.39ZM165,282.59c-4.15,0-6.99-2.48-6.99-7.26v-.28c0-4.81,3-7.46,6.85-7.46,3.58,0,6.58,2.01,6.58,6.77v1.73h-9.35c.16,2.59,1.26,3.58,3,3.58,1.54,0,2.37-.82,2.64-1.87h3.71c-.44,2.72-2.67,4.79-6.44,4.79ZM162.13,273.43h5.39c-.08-2.12-1.05-3.03-2.64-3.03-1.27,0-2.42.69-2.75,3.03Z"></path></g><g><g><path d="M109.42,313.21h108.73v31.28h-121.32v-19.84s.09.08.11.14c.52,6.89,7.35,11.34,13.94,9.9,1.51-.33,2.97-.85,4.2-1.78,1.16-.88-.03-2.35-1.19-1.65-3.09,2.1-7.11,2.3-10.38.41-5.8-3.35-5.93-11.36-.25-14.94,5.27-3.31,12.88-.65,14.19,5.52l-.05.08s.05.08.08.12c.03.03.05.07.07.11.16.31.15,1.47.13,1.88-.06,1.84-.77,3.6-1.88,5.05-.38.71.31,1.48,1.05,1.45.45-.02.63-.25.88-.56,1.05-1.32,1.75-3.08,1.97-4.78l.1-.23s.05-.1.08-.16c-.06-.02-.06-.1,0-.12-.13-.05-.08-.44.04-.49-.03,0-.08-.01-.08-.03,0-.06-.01-.63,0-.66s.05-.04.08-.06c-.12-.03-.16-.39-.04-.45-.07-.03-.06-.16,0-.2-.03-.06-.06-.11-.08-.16l-.1-.2c-.54-5.05-5.11-9.06-10.09-9.49l-.2-.09s-.03-.02,0-.04Z" class="cls-32"></path><path d="M108.04,313.21c.39.02.78.03,1.18.04.05-.03.14-.03.2,0,5.17.33,9.96,4.57,10.38,9.78.06.02.06.14,0,.16h.04c-.01.1,0,.16.04.2,0,.14.04.35.04.45v.75c0,.12-.03.34-.04.49-.02.04-.05.08-.08.12.06.02.06.12,0,.16-.14,1.45-.61,2.77-1.32,4.02-.17.3-.79,1.25-1.03,1.41-.39.27-.84.28-1.25.04-.49-.28-.74-.84-.48-1.38.05-.1.11-.1.14-.15,1.52-2.28,2.01-4.12,1.62-6.87-.04-.03-.07-.07-.08-.12-.04-.04-.25-.94-.32-1.12-1.75-4.89-7.68-7.07-12.4-5.13-2.84,1.17-5.03,3.76-5.44,6.83-1.01,7.52,7.21,12.28,13.64,8.86.38-.2,1.03-.69,1.42-.75,1.16-.16,1.8,1.13.88,1.9-1.48,1.24-4.31,2.02-6.22,2.11-5.59.25-10.91-3.41-11.93-8.99-.08-.46-.11-.93-.21-1.39.02-.45-.03-.93,0-1.38.04-2.97,1.83-5.73,4.1-7.54,1.82-1.45,4.17-2.48,6.52-2.52h.59Z" class="cls-8"></path><path d="M107.45,313.21c-5.29.41-10.22,4.67-10.62,10.06v-10.06h10.62Z" class="cls-29"></path><path d="M109.23,313.21s.03.02,0,.04c-.32-.01-.65,0-.97,0-.07,0-.18.03-.22-.04h1.18Z" class="cls-16"></path><path d="M109.42,313.21v.04c-.07,0-.13,0-.2,0v-.04h.2Z" class="cls-1"></path><path d="M104.45,324.81c-.04-.32-.06-.65-.04-.97.02-.24.19-.77.29-1.02.76-1.97,3.18-2.87,5.12-2.14,1.57.59,2,2.23,4,1.94.69-.1,1.51-.56,2.03.18.42.6.23,2.54.02,3.25-1.47,4.88-7.42,6.97-11.74,4.27-1.61-1-2.89-2.71-3.29-4.56-1.58-7.33,7.4-11.66,12.82-6.93.64.56,1.45,1.46.39,2.13-.94.59-1.48-.3-2.11-.81-3.05-2.42-7.76-1.15-8.89,2.63-.06.21-.09.43-.13.65,0,.03-.07.03-.08.06-.09.4-.03.98,0,1.39.03.04.06.08.08.12.32,2.34,2.48,4.09,4.76,4.37s4.77-.93,5.74-2.98c.1-.2.14-.64,0-.82-.21-.25-.72-.36-1.02-.24s-.81,1.03-1.08,1.33c-2.01,2.24-6.25,1.29-6.77-1.74-.03-.04-.06-.08-.08-.12Z" class="cls-8"></path><path d="M178.14,317.96c2.53,1.91,2.81,6.34,1.18,8.9-.38.59-.9,1.1-1.35,1.63-.07.09-.51.6-.52.65-.08.25.24.4.42.51.66.38,1.54.64,1.66,1.54.23,1.78-2.01,2.5-2.94,1.2-.43-.61-.28-1.11-.43-1.78-.12-.54-.51-.8-1.01-.97-.78-.27-1.51-.17-2.31-.3-4.02-.61-5.63-4.36-4.84-8.08.95-4.47,6.68-5.88,10.12-3.29Z" class="cls-8"></path><path d="M129.6,324.14c.26-3.31,3.91-4.72,6.46-2.76l.45.59v-.61c0-.09.15-.42.22-.49.59-.63,2.14-.37,2.07.69-.09,2.34.11,4.77,0,7.1-.17,3.48-2.85,4.21-5.9,3.84-.68-.08-2.15-.4-2.63-.88-.37-.37-.2-1.05.25-1.29.54-.29.85.05,1.33.22,1.04.38,2.85.6,3.82,0,1.06-.66.86-1.96.88-3.05l-.33.47c-2.53,2.26-6.37.82-6.61-2.64-.03-.11-.06-.2-.08-.28,0-.14,0-.29,0-.43.04-.07.06-.16.04-.29l.04-.02c-.06-.02-.06-.14,0-.16Z" class="cls-8"></path><path d="M155.35,321.64c.44.52.65,1.15.7,1.85.11,1.63-.09,3.37,0,5.01-.07.69-.59.95-1.24.88-.78-.08-.91-.75-.89-1.41l-.45.63c-1.57,1.65-5.38.72-5.55-1.68-.22-3.08,3.9-2.69,5.94-2.75.1-.03.07-.32.07-.41-.02-.45-.11-.83-.4-1.18-.59-.7-2.35-.41-3.14-.18-.35.1-.88.41-1.22.39-.81-.05-.92-1.24-.23-1.61,1.67-.9,5.08-1.11,6.42.45Z" class="cls-8"></path><path d="M188.46,325.75c0-.05.02-.09.04-.05,0-1.37-.01-2.75,0-4.13l.04-.12c.05-.78.62-.97,1.32-.91.61.05.89.42.93,1.01-.13,2.22.17,4.63,0,6.83-.07.86-.79,1.2-1.58.94-.26-.08-.63-.47-.63-.75v-.57c-.17.08-.26.31-.4.45-.66.73-1.69,1.01-2.67.97-4.32-.2-2.76-5.12-3.05-7.98.01-.9,1.17-1.1,1.81-.76.42.23.48.53.51.99.1,1.5-.13,3.17,0,4.66.06.72.46,1.27,1.21,1.36,1.32.15,2.38-.56,2.46-1.93Z" class="cls-8"></path><path d="M194.9,325.44s.03.32.04.36c.03.12.15.4.2.55.64,1.66,2.97,1.6,4.37,1.07.27-.1.62-.34.89-.37.7-.07,1.06.61.73,1.2-.29.5-1.36.86-1.9.98-3.66.83-7.07-1.06-6.46-5.15.7-4.72,8.47-5.09,8.6.54,0,.27-.02.53-.26.69-.03.02-.25.12-.27.12h-5.94Z" class="cls-8"></path><path d="M160.21,322.39c.28.64.62,1.34.89,1.98.31.73.55,1.51.91,2.2.02.04-.02.07.08.06.16-.43.32-.87.5-1.29.53-1.23,1.1-2.68,1.71-3.86.24-.48.34-.85.97-.92.89-.09,1.4.39,1.13,1.28-.12.4-.39.79-.55,1.15-1.06,2.36-2.15,4.69-3.24,7.02-.29.62-.68,1.87-1.17,2.3-.56.5-1.8.28-1.8-.65,0-.58.75-1.76,1-2.36.06-.14.17-.33.14-.47-.2-.38-.33-.79-.51-1.18-.81-1.8-1.7-3.59-2.51-5.39-.17-.37-.29-.72-.18-1.13.19-.68,1.46-.74,1.92-.29.27.26.54,1.18.71,1.56Z" class="cls-8"></path><path d="M214.95,320.67h2.19c.1,0,.46.18.53.26.25.26.25.92-.02,1.16-.06.05-.45.24-.51.24h-2.19v3.81c0,.47.32,1.12.76,1.33.63.3,1.17.09,1.79.04.75-.06.71.9.48,1.38-.2.43-1.14.52-1.59.54-1.9.09-3.18-.59-3.62-2.46,0-.04-.12-.23-.12-.36v-4.28h-1.13c-.2,0-.56-.22-.66-.41-.14-.28-.11-.88.17-1.07.04-.03.42-.18.45-.18h1.16v-1.87c0-.09.25-.48.32-.55.41-.39,1.48-.37,1.81.12.04.06.16.33.16.39v1.91Z" class="cls-8"></path><path d="M210.3,326.31c.03.07.06.14.08.2,0,.13.02.42,0,.53,0,.01-.06.12-.09.23-.56,2.14-3.17,2.32-5.02,2.08-.67-.09-2.25-.42-2.49-1.14-.22-.63.31-1.14.93-.97.3.08.62.27.93.37.83.26,3.19.63,3.58-.42.29-.78-.32-1.12-.97-1.27-1.35-.33-3.27-.22-4.04-1.6-.25-.46-.38-1.19-.21-1.71.06-.17.28-.58.4-.75,1.16-1.68,4.63-1.61,6.24-.69.5.28.66.85.24,1.3-.52.55-1.34-.09-1.92-.25-.93-.25-3.07-.37-2.91,1.1.06.56.59.69,1.06.8,1.41.32,4.02.3,4.19,2.22Z" class="cls-8"></path><path d="M143.46,322.13l.4-.61c.57-.65,1.85-1.11,2.7-1.01.57.07.73.95.51,1.38-.29.58-1.04.47-1.57.56-.82.13-1.61.53-1.86,1.38-.38,1.3.09,3.35-.13,4.73-.18,1.13-2.17,1.12-2.31-.03v-7.17c.12-.98,1.54-1.07,2.08-.41.05.06.17.41.17.48v.69Z" class="cls-8"></path><path d="M121.44,333.31c.9,1.43-.17,3.25-1.81,3.37-1.18.09-2.56-.69-2.67-1.95-.22-2.55,3.17-3.5,4.48-1.42Z" class="cls-8"></path><path d="M153.33,338.73c.41-.62,1.19-.86,1.89-.6.37.14.55.39.65.77.11.44.13,2.06.07,2.54-.05.38-.36.43-.69.37-.22-.04-.28-.3-.3-.49-.05-.55.12-1.9-.1-2.31-.2-.37-.88-.27-1.15,0-.39.4-.15,1.81-.22,2.39-.02.22-.1.39-.33.41-.36.04-.61-.02-.65-.41-.07-.63.06-1.38,0-2.01-.03-.32-.12-.55-.47-.6-1.44-.21-.9,1.82-1,2.65-.02.15-.11.33-.27.37-.43.09-.68-.04-.72-.48-.06-.7-.06-2.06,0-2.76.02-.21.09-.45.34-.49.4-.07.67.1.61.53.08.08.08-.04.12-.08.42-.45,1-.62,1.59-.41.3.11.55.3.62.62Z" class="cls-8"></path><path d="M161.1,339.56c.05-.46.29-1.02.69-1.26.7-.43,1.68-.36,2.19.32v-1.87s.14-.24.21-.27c.32-.14.75,0,.78.39-.09,1.44.13,3.03,0,4.46-.02.24-.08.45-.34.49-.44.06-.67-.09-.65-.55-.86,1.04-2.51.68-2.83-.66-.04-.17-.02-.33-.05-.45,0-.04-.07-.03-.08-.26.02-.08.05-.19.08-.32Z" class="cls-8"></path><path d="M173.5,338.73h2.23c.37,0,.42.79-.04.79h-2.19v2.03c0,.05-.17.22-.23.24-.32.1-.69,0-.74-.37.08-1.43-.14-3.05-.01-4.45.03-.28.17-.46.46-.49.9-.1,2,.07,2.92,0,.49.07.3.75.08.75h-2.41s-.06.05-.06.06v1.44Z" class="cls-8"></path><path d="M132.32,337.23v1.5h2.19s.21.09.24.12c.21.21.05.67-.24.67h-2.19v1.95s-.09.21-.12.24c-.17.19-.84.15-.86-.21v-4.61c-.02-.26.21-.39.44-.41.89-.1,1.97.07,2.88,0,.53.07.32.75.12.75h-2.47Z" class="cls-8"></path><path d="M160.21,339.11s.08.02.07.07v2.33c-.28.51-1.03.37-.95-.26-.1.07-.15.21-.23.3-.61.57-2.02.28-2.26-.54-.43-1.46,1.58-1.44,2.5-1.41.09-1.08-.84-.93-1.58-.73-.21.06-.5.29-.66,0-.37-.71,1.3-.86,1.71-.84.82.05,1.19.32,1.42,1.09Z" class="cls-8"></path><path d="M179.2,341.72c-.09-.1-.12-.33-.13-.46-.07.05-.08.14-.16.22-.65.67-2.23.4-2.37-.6-.19-1.44,1.58-1.25,2.52-1.28.13-.99-.75-.96-1.46-.77-.27.07-.82.42-.86-.13-.03-.4.55-.53.85-.59,1.23-.26,2.32-.03,2.42,1.39.03.37.05,1.84-.06,2.11s-.6.28-.75.11Z" class="cls-8"></path><path d="M191.72,338.64c.45.6.11,2.11.22,2.88-.17.54-1.02.36-.91-.26-.14.11-.23.28-.38.39-.51.34-1.42.24-1.85-.19-.27-.27-.38-.64-.34-1.01,0-.02.16-.3.18-.33.42-.61,1.74-.47,2.39-.54.09-.96-.76-.93-1.46-.75-.26.07-.83.41-.87-.12-.03-.4.52-.52.83-.59.8-.18,1.66-.19,2.19.52Z" class="cls-8"></path><path d="M184.45,338.72s.05.02.06.05c.16.37.17,2.13.12,2.59-.02.22-.1.41-.34.45-.3.05-.56,0-.67-.32-.14-.44.04-1.58-.03-2.14-.1-.7-.95-.76-1.35-.34-.51.54-.23,1.71-.3,2.42-.05.55-.9.49-.95.04.07-.98-.09-2.08,0-3.04.02-.22.11-.34.34-.37.48-.07.61.14.63.59.63-.81,1.96-.92,2.48.06Z" class="cls-8"></path><path d="M166.75,340.15c.04.93.94,1.11,1.7.93.26-.06.75-.44.94-.12.25.44-.37.67-.69.77-.94.27-2.18.1-2.69-.83-.37-.67-.33-1.36.05-2,.83-1.38,3.25-1.11,3.4.64.02.19.05.61-.22.61h-2.51Z" class="cls-8"></path><path d="M136.23,340.15c.06.95,1.02,1.13,1.79.9.26-.07.73-.44.9-.03.23.54-.98.79-1.33.82-1.49.1-2.42-.75-2.26-2.26.21-1.99,3.54-2.21,3.67.11,0,.14-.03.45-.22.45h-2.55Z" class="cls-8"></path><path d="M140.5,340.15c.07.92.93,1.1,1.7.93.29-.06.82-.46,1-.05.23.54-.95.79-1.3.81-1.49.11-2.46-.74-2.3-2.26.18-1.71,2.85-2.16,3.49-.62.1.25.09.42.14.64,0,.03.07.01.08.08,0,.06,0,.2-.01.25,0,.01-.22.21-.25.21h-2.55Z" class="cls-8"></path><path d="M197.98,338.1s.9-.08,1.13.08.1.63-.16.63h-.97v1.76c0,.18.2.4.37.46.47.16,1.04-.3.97.41-.02.2-.07.27-.26.33-.63.2-1.65.05-1.93-.63-.05-.11-.14-.42-.14-.53v-1.79c-.31-.02-.78.11-.79-.33-.01-.47.46-.37.79-.38v-.81c0-.33.68-.49.91-.16.02.03.08.14.08.16v.81Z" class="cls-8"></path><path d="M144.9,338.95c-.23.29.04.51.33.6.62.18,1.77.1,1.86.98.16,1.44-1.8,1.49-2.75,1.14-.28-.1-.56-.21-.47-.57.09-.41.71-.03.95.02.37.09,1.44.21,1.42-.39-.02-.49-1.14-.47-1.51-.58-.98-.3-1.07-1.41-.17-1.88.52-.27,1.17-.28,1.73-.15.31.07,1.02.31.65.74-.22.25-.57-.02-.82-.09-.38-.11-.93-.15-1.19.19Z" class="cls-8"></path><path d="M195.67,341.44c-.58.51-2.05.53-2.68.13-.36-.23-.3-.75.18-.66.53.1.72.33,1.39.27.54-.06.86-.56.24-.8-.74-.28-2.09-.05-1.96-1.31.1-1.04,1.58-1.15,2.37-.95.11.03.58.21.63.27.17.19.04.5-.2.56-.2.05-.32-.09-.49-.14-.36-.11-.76-.19-1.13-.06-.34.12-.42.56-.11.74.27.15.98.16,1.34.28.28.09.69.37.74.68.07.42-.02.71-.33.99Z" class="cls-8"></path><path d="M186.81,338.1h1.01c.1,0,.26.22.26.34,0,.14-.11.37-.26.37h-1.01v1.68c0,.17.24.49.41.54.38.12.96-.22.97.29,0,.64-.89.57-1.34.48-.41-.09-.98-.54-.98-.99v-1.99c-.28,0-.81.07-.83-.34-.02-.44.53-.38.83-.37v-.89c0-.24.62-.34.83-.16.02.02.12.18.12.2v.85Z" class="cls-8"></path><path d="M203.46,338.03c.37-.03.86.04,1.2.19.26.12.48.32.28.62-.24.37-.64-.03-.95-.07-.48-.06-1.05.09-1.22.59-.33.97.17,1.95,1.29,1.72.23-.05.77-.41.89,0,.19.66-1.12.8-1.55.76-2.29-.21-2.37-3.62.05-3.81Z" class="cls-8"></path><path d="M200.22,338.07c.29-.07.61.04.64.37.11.94-.08,2.11,0,3.08-.06.41-.88.46-.95-.12-.11-.93.08-2.05,0-3,.02-.13.18-.3.3-.33Z" class="cls-8"></path><path d="M199.86,337.09s-.04,0-.06-.08c-.21-.77,1.17-.91,1.19-.15,0,.55-.82.68-1.12.23Z" class="cls-8"></path><path d="M188.54,321.45c-.09,1.34.05,2.8,0,4.16,0,.08.04.16-.08.14.08-1.36-.05-2.79,0-4.16,0-.08-.04-.16.08-.14Z" class="cls-35"></path><path d="M129.6,324.29c0,.12.05.35-.08.32,0-.1,0-.21,0-.32.01-.1.05-.1.08,0Z" class="cls-24"></path><path d="M161.1,339.56c-.01.12.06.35-.08.32,0-.11-.04-.36.08-.32Z" class="cls-28"></path><path d="M129.52,325.04c.13-.04.07.16.08.28-.13.04-.08-.16-.08-.28Z" class="cls-10"></path><path d="M210.3,326.31c.12-.03.08.09.08.2-.13.03-.07-.09-.08-.2Z" class="cls-6"></path><path d="M119.89,323.19c0,.07,0,.13,0,.2-.12.03-.07-.09-.08-.2.01-.1.05-.1.08,0Z" class="cls-6"></path><path d="M119.89,325.2c0,.1.04.18-.08.16,0-.05,0-.11,0-.16,0-.08.06-.08.08,0Z" class="cls-22"></path><path d="M129.6,324.14c0,.05,0,.11,0,.16h-.08c0-.1-.04-.18.08-.16Z" class="cls-12"></path><path d="M119.81,323.03c.12-.02.07.06.08.16h-.08c0-.05,0-.11,0-.16Z" class="cls-12"></path><path d="M119.89,325.08s0,.08,0,.12h-.08c0-.09-.04-.14.08-.12Z" class="cls-19"></path><path d="M102.83,324.89c.12-.02.07.03.08.12-.11.02-.07-.03-.08-.12Z" class="cls-27"></path><path d="M104.45,324.81c.12-.02.06.04.08.12-.12.02-.07-.03-.08-.12Z" class="cls-30"></path><path d="M117.4,322.32c.05.05.05-.08.08.12-.11.02-.08-.03-.08-.12Z" class="cls-21"></path><path d="M110.15,323.37c1.16,2.08-2.24,3.84-3.48,1.8-1.36-2.23,2.13-4.23,3.48-1.8Z" class="cls-29"></path><path d="M177.24,320.24c.85,1.32.8,4.21.01,5.56-.98,1.69-3.24,2.13-4.96,1.3-2.29-1.11-2.47-5-1.27-6.92,1.35-2.16,4.87-2.02,6.22.06Z" class="cls-29"></path><path d="M136.02,322.97c.52.61.58,1.93.4,2.68-.33,1.39-1.63,2.01-2.98,1.62-2.15-.61-2.11-4.47.08-5.03.9-.23,1.9.02,2.51.74Z" class="cls-29"></path><path d="M153.88,325.44v.81c0,.29-.52,1.05-.77,1.24-.94.71-2.96.58-2.94-.89,0-.79.63-.97,1.29-1.08.8-.13,1.61-.08,2.42-.09Z" class="cls-29"></path><path d="M195.02,323.82s.09-.36.13-.44c.45-1.07,1.44-1.52,2.58-1.37s1.73,1.1,1.72,2.17h-4.54c.03-.08.03-.16.04-.24.03-.03.05-.07.08-.12Z" class="cls-29"></path><path d="M195.02,323.82c0,.09.03.14-.08.12.03-.2.04-.08.08-.12Z" class="cls-31"></path><path d="M119.21,333.65c.65-.12,1.17.49.92,1.12-.31.76-1.74.53-1.58-.51.04-.26.41-.56.66-.6Z" class="cls-29"></path><path d="M162.91,338.74c1.07-.13,1.32,1.2.92,1.95-.35.66-1.45.58-1.69-.18-.22-.68-.09-1.67.77-1.77Z" class="cls-29"></path><path d="M159.33,340.15c0,.68-.34,1.1-1.05,1.03-.37-.04-.6-.31-.53-.69.03-.15.47-.33.61-.33h.97Z" class="cls-29"></path><path d="M179.07,340.15c.1.72-.57,1.22-1.25,1-.38-.12-.49-.75-.06-.91.05-.02.31-.09.35-.09h.97Z" class="cls-29"></path><path d="M191.03,340.15c0,.14.01.28-.03.42-.01.04-.22.36-.26.4-.48.49-1.61.15-1.24-.55.07-.13.4-.26.53-.26h1.01Z" class="cls-29"></path><path d="M168.68,339.6h-1.93c.11-1.23,1.86-1.27,1.93,0Z" class="cls-29"></path><path d="M138.17,339.6h-1.93c.14-1.2,1.89-1.3,1.93,0Z" class="cls-29"></path><path d="M142.43,339.6h-1.93c.13-1.19,1.89-1.31,1.93,0Z" class="cls-29"></path></g><path d="M0,338.66h11.63v1.66H0v-1.66ZM0,337.14h11.63v-1.66H0v1.66ZM3.32,333.97h4.98v-1.66H3.32v1.66ZM3.32,330.8h4.98v-1.66H3.32v1.66ZM3.32,327.63h4.98v-1.66H3.32v1.66ZM8.31,322.8H3.32v1.66h4.98v-1.66ZM0,321.28h11.63v-1.66H0v1.66ZM0,318.11h11.63v-1.66H0v1.66ZM13.29,337.14h17.73c.3-.51.52-1.07.67-1.66H13.29v1.66ZM29.63,329.14h-13.02v1.66h14.4c-.37-.63-.83-1.19-1.39-1.66ZM16.62,325.97v1.66h13.02c.55-.47,1.02-1.03,1.39-1.66h-14.4ZM31.02,319.62H13.29v1.66h18.4c-.14-.59-.37-1.15-.67-1.66ZM25.53,316.45h-12.23v1.66h16.51c-1.13-1.03-2.63-1.66-4.28-1.66ZM16.62,324.46h4.98v-1.66h-4.98v1.66ZM26.28,324.46h5.37c.14-.53.22-1.09.22-1.66h-5.59v1.66ZM16.62,333.97h4.98v-1.66h-4.98v1.66ZM26.28,332.31v1.66h5.59c0-.58-.08-1.13-.22-1.66h-5.37ZM13.29,340.3l12.23.02c1.66,0,3.15-.63,4.28-1.66H13.29v1.65ZM46.52,340.32l.58-1.66h-1.16l.57,1.66ZM45.42,337.14h2.22l.58-1.66h-3.38l.58,1.66ZM44.3,333.97h4.44l.58-1.66h-5.61l.58,1.66ZM43.19,330.8h6.67l.58-1.66h-7.84l.58,1.66ZM36.55,324.46h8.98l-.58-1.66h-8.4v1.66ZM48.62,321.28h11.2v-1.66h-10.62l-.58,1.66ZM50.3,316.45l-.58,1.66h10.09v-1.66h-9.52ZM33.23,340.32h8.31v-1.66h-8.31v1.66ZM33.23,337.14h8.31v-1.66h-8.31v1.66ZM36.55,333.97h4.98v-1.66h-4.98v1.66ZM36.55,330.8h4.98v-1.66h-4.98v1.66ZM56.49,322.8h-8.4l-.58,1.66h8.98v-1.66ZM51.51,327.63h4.98v-1.66h-9.5l-.47,1.34-.47-1.34h-9.5v1.66h4.98v-1.53l.54,1.53h8.9l.54-1.53v1.53ZM56.49,329.14h-4.98v1.66h4.98v-1.66ZM51.51,333.97h4.98v-1.66h-4.98v1.66ZM51.51,337.14h8.31v-1.66h-8.31v1.66ZM51.51,340.32h8.31v-1.66h-8.31v1.66ZM44.43,321.28l-.58-1.66h-10.62v1.66h11.2ZM43.32,318.11l-.58-1.66h-9.52v1.66h10.09ZM61.61,339.08c0-.74.56-1.31,1.27-1.31s1.27.56,1.27,1.31-.56,1.31-1.27,1.31-1.27-.56-1.27-1.31ZM63.85,339.16v-.17c0-.53-.42-.95-.97-.95s-.97.42-.97.95v.17c0,.53.42.95.97.95s.97-.42.97-.95ZM62.68,339.75h-.32v-1.33h.6c.3,0,.45.18.45.42,0,.21-.1.34-.24.4l.3.51h-.36l-.25-.46h-.18v.46ZM62.93,339.05c.1,0,.16-.04.16-.14v-.1c0-.1-.06-.14-.16-.14h-.24v.37h.24Z" class="cls-34" data-name="IBM&#xAE;" id="IBM_"></path><rect height="27.32" width=".58" y="314.08" x="78.29"></rect></g></g></g></svg>